<?xml version="1.0" standalone="no"?>
<!DOCTYPE svg PUBLIC "-//W3C//DTD SVG 1.1//EN" "http://www.w3.org/Graphics/SVG/1.1/DTD/svg11.dtd" >
<svg xmlns="http://www.w3.org/2000/svg">
<metadata>
Created by FontPrep 20130207 at Tue Feb 18 10:11:46 2014
 By LaCount, R.J. (US - Seattle)
Copyright (c) 2013 Monotype Imaging Inc. All right reserved.
</metadata>
<defs>
<font id="af0d5726eba820074ef9e60f7f51f664" horiz-adv-x='1024' >
  <font-face 
    font-family="EMprint-Light"
    font-weight="300"
    font-stretch="normal"
    units-per-em="2048"
    panose-1="2 11 3 3 2 2 4 2 2 4"
    ascent="1528"
    descent="-520"
    x-height="969"
    cap-height="1423"
    bbox="-426 -530 2333 1962"
    underline-thickness="102"
    underline-position="-102"
    unicode-range="U+000D-F8FF"
  />
<missing-glyph horiz-adv-x="1036" 
 />
    <glyph glyph-name=".notdef" horiz-adv-x="1036" 
 />
    <glyph glyph-name=".null" horiz-adv-x="512" 
 />
    <glyph glyph-name=".null" horiz-adv-x="512" 
 />
    <glyph glyph-name="nonmarkingreturn" unicode="&#xd;" horiz-adv-x="223" 
 />
    <glyph glyph-name="space" unicode=" " horiz-adv-x="479" 
 />
    <glyph glyph-name="exclam" unicode="!" horiz-adv-x="501" 
d="M182 137h137v-137h-137v137zM301 1423l-6 -1046h-78l-4 1046h88z" />
    <glyph glyph-name="quotedbl" unicode="&#x22;" horiz-adv-x="684" 
d="M520 877h-69l-11 585h95zM233 877h-69l-10 585h94z" />
    <glyph glyph-name="numbersign" unicode="#" horiz-adv-x="1105" 
d="M522 899l-65 -375h256l63 375h-254zM100 446v78h283l66 375h-275v78h289l78 446h73l-77 -446h254l77 446h74l-78 -446h221v-78h-235l-66 -375h230v-78h-242q-69 -385 -80 -446h-74q20 109 41 222.5t39 223.5h-256l-80 -446h-73l82 446h-271z" />
    <glyph glyph-name="dollar" unicode="$" horiz-adv-x="1118" 
d="M236 1050.5q0 -108.5 73.5 -170t222.5 -106.5v547q-141 -14 -218.5 -88t-77.5 -182.5zM915 385q0 158 -115.5 204t-185.5 68v-555q145 16 223 94t78 189zM906.5 152q-94.5 -108 -292.5 -127v-222h-82v220q-127 2 -228 31.5t-157 68.5v98q63 -47 166 -82t219 -39v584
q-201 60 -289.5 136t-88.5 223q0 148 103 245t275 113v213h82v-211q169 -6 328 -66v-94q-159 74 -328 80v-573q205 -64 296 -135t91 -213t-94.5 -250z" />
    <glyph glyph-name="percent" unicode="%" horiz-adv-x="1611" 
d="M1372 1423l-1036 -1423h-96l1036 1423h96zM139 1068q0 -148 71.5 -226t185.5 -78t182.5 78t68.5 221t-67.5 226t-185.5 83t-186.5 -78t-68.5 -226zM154.5 1343q93.5 101 242.5 101q148 0 238 -101.5t90 -273t-89.5 -274.5t-240.5 -103t-242.5 103t-91.5 275t93.5 273z
M965 350q0 -148 71.5 -225.5t185.5 -77.5t182.5 78t68.5 221t-67.5 226t-185.5 83t-186.5 -78.5t-68.5 -226.5zM980.5 627.5q93.5 99.5 241.5 99.5t238 -101t90 -273t-90.5 -275t-239.5 -103t-241 102.5t-92 276.5t93.5 273.5z" />
    <glyph glyph-name="ampersand" unicode="&#x26;" horiz-adv-x="1308" 
d="M403 1002.5q38 -61.5 132 -171.5q147 66 223 141t76 179t-64.5 166.5t-171.5 62.5t-170 -64t-63 -158t38 -155.5zM506 739q-195 -78 -273.5 -169.5t-78.5 -221.5t97 -214.5t271 -84.5q94 0 196.5 61.5t180.5 170.5zM72 345q0 167 97 270.5t288 185.5q-72 84 -124 166
t-52 167q0 150 89 239t224 89t226 -77.5t91 -218.5q0 -140 -86 -234t-241 -160l366 -420q51 70 226 385h100q-132 -239 -268 -448l135 -148q25 -29 49.5 -54.5t39 -42t42.5 -44.5h-121l-192 215q-202 -246 -457 -246q-201 0 -316.5 104.5t-115.5 271.5z" />
    <glyph glyph-name="quotesingle" unicode="'" horiz-adv-x="397" 
d="M248 1462l-15 -585h-69l-10 585h94z" />
    <glyph glyph-name="parenleft" unicode="(" horiz-adv-x="600" 
d="M197 625q0 -507 333 -953h-94q-150 188 -234.5 433t-84.5 519.5t85 517t234 435.5h94q-237 -308 -285 -561.5t-48 -390.5z" />
    <glyph glyph-name="parenright" unicode=")" horiz-adv-x="632" 
d="M451 625q0 510 -334 952h94q150 -188 234.5 -433t84.5 -519.5t-85 -517t-234 -435.5h-94q146 185 240 437t94 516z" />
    <glyph glyph-name="asterisk" unicode="*" horiz-adv-x="788" 
d="M438 1462l-12 -325l303 104l29 -76l-312 -92l201 -260l-67 -45l-187 268l-180 -274l-74 51l207 262l-317 90l26 84l312 -112l-13 325h84z" />
    <glyph glyph-name="plus" unicode="+" horiz-adv-x="1118" 
d="M600 662h436v-82h-436v-437h-82v437h-436v82h436v436h82v-436z" />
    <glyph glyph-name="comma" unicode="," horiz-adv-x="473" 
d="M231 137h105l-207 -493h-82z" />
    <glyph glyph-name="hyphen" unicode="-" horiz-adv-x="823" 
d="M100 479v88h623v-88h-623z" />
    <glyph glyph-name="period" unicode="." horiz-adv-x="473" 
d="M168 137h137v-137h-137v137z" />
    <glyph glyph-name="slash" unicode="/" horiz-adv-x="677" 
d="M729 1536l-700 -1636h-86l700 1636h86z" />
    <glyph glyph-name="zero" unicode="0" horiz-adv-x="1118" 
d="M948 715q0 645 -391 645q-186 0 -286.5 -161t-100.5 -488t105.5 -487.5t292.5 -160.5q186 0 283 181.5t97 470.5zM76 718q0 364 130 547t364 183t352 -191.5t118 -523.5t-117.5 -545t-354.5 -213q-238 0 -365 189.5t-127 553.5z" />
    <glyph glyph-name="one" unicode="1" horiz-adv-x="1118" 
d="M649 1460v-1460h-88v1346l-371 -191v96l406 209h53z" />
    <glyph glyph-name="two" unicode="2" horiz-adv-x="1118" 
d="M139 1303q191 145 401 145t313 -103.5t103 -262.5t-77.5 -283.5t-264.5 -311.5l-389 -395h768v-92h-880v98l448 463q167 171 215.5 247.5t67 134t18.5 117.5q0 128 -78 215t-241 87q-200 0 -404 -162v103z" />
    <glyph glyph-name="three" unicode="3" horiz-adv-x="1118" 
d="M954 389q0 -176 -123 -295t-347 -119q-223 0 -371 70v109q88 -61 200.5 -77t186.5 -16t217 49t143 274t-166 255.5t-260 30.5h-153v92h143q181 0 293 89t112 221t-81.5 211t-262.5 79q-127 0 -218 -42t-120 -60v100q57 33 151.5 60.5t203.5 27.5q213 0 317.5 -100.5
t104.5 -247.5t-90.5 -244t-208.5 -127v-4q329 -63 329 -336z" />
    <glyph glyph-name="four" unicode="4" horiz-adv-x="1118" 
d="M743 1272h-6q-29 -59 -88 -137l-510 -705h604v842zM827 346v-346h-84v346h-712v78l727 999h69v-993h228v-84h-228z" />
    <glyph glyph-name="five" unicode="5" horiz-adv-x="1118" 
d="M519 852q236 0 350 -124t114 -310t-126.5 -314.5t-371.5 -128.5q-125 0 -208.5 30t-135.5 58v103q49 -35 141 -71t204 -36q205 0 304 103.5t99 256.5t-95.5 251t-276.5 98t-337 -49l47 704h699v-82h-623l-35 -518q125 29 251 29z" />
    <glyph glyph-name="six" unicode="6" horiz-adv-x="1118" 
d="M302.5 160.5q101.5 -101.5 265.5 -101.5t264 106t100 264q0 159 -91 259t-266 100t-274.5 -104t-99.5 -263t101.5 -260.5zM592 872q204 0 319 -123.5t115 -312.5t-123.5 -325t-333.5 -136q-211 0 -335.5 126.5t-124.5 306.5t124 387l379 628h103l-385 -626l2 -2
q99 77 260 77z" />
    <glyph glyph-name="seven" unicode="7" horiz-adv-x="1118" 
d="M49 1341v82h965v-75l-643 -1348h-95l644 1341h-871z" />
    <glyph glyph-name="eight" unicode="8" horiz-adv-x="1118" 
d="M1022 375q0 -186 -129 -293t-341 -107t-336 100.5t-124 291.5q0 147 76 236t205 130v6q-104 28 -170 125t-66 194q0 181 118 285.5t310 104.5q191 0 302.5 -99.5t111.5 -275.5q0 -108 -65 -201.5t-171 -130.5v-6q279 -81 279 -360zM186 378q0 -152 98.5 -235.5
t272.5 -83.5t272.5 83t98.5 231t-102 231.5t-270 83.5q-167 0 -268.5 -79t-101.5 -231zM885 1073q0 135 -87 213t-237 78t-240 -78t-90 -211t92.5 -215t238.5 -82q147 0 235 80t88 215z" />
    <glyph glyph-name="nine" unicode="9" horiz-adv-x="1118" 
d="M817 1265q-101 99 -271 99t-265 -107.5t-95 -264.5t95 -257t264 -100t271 105t102 265q0 161 -101 260zM526 551q-201 0 -317.5 125t-116.5 317q0 191 126.5 323t333.5 132t332.5 -124.5t125.5 -306.5t-125 -388l-379 -629h-107l387 629l-2 2q-103 -80 -258 -80z" />
    <glyph glyph-name="colon" unicode=":" horiz-adv-x="473" 
d="M168 137h137v-137h-137v137zM168 969h137v-138h-137v138z" />
    <glyph glyph-name="semicolon" unicode=";" horiz-adv-x="473" 
d="M231 137h105l-207 -493h-82zM168 969h137v-138h-137v138z" />
    <glyph glyph-name="less" unicode="&#x3c;" horiz-adv-x="1118" 
d="M1036 1100v-86l-852 -432l852 -432v-87l-954 480v78z" />
    <glyph glyph-name="equal" unicode="=" horiz-adv-x="1118" 
d="M82 375v82h954v-82h-954zM82 784v82h954v-82h-954z" />
    <glyph glyph-name="greater" unicode="&#x3e;" horiz-adv-x="1118" 
d="M82 63v87l852 432l-852 432v86l954 -479v-78z" />
    <glyph glyph-name="question" unicode="?" horiz-adv-x="915" 
d="M338 137h137v-137h-137v137zM109 1364q151 84 337 84t285.5 -102.5t99.5 -260.5q0 -225 -144 -343.5t-236 -178.5v-186h-91v227q199 126 289 230t90 238t-78.5 213t-232.5 79t-319 -90v90z" />
    <glyph glyph-name="at" unicode="@" horiz-adv-x="1753" 
d="M553 659q0 -329 322 -329q150 0 235 108v531q-96 53 -202 53q-185 0 -270 -106t-85 -257zM92 678q0 170 61.5 314.5t169 249t256 163.5t330.5 59q361 0 555.5 -194.5t194.5 -534.5q0 -228 -107 -355.5t-234 -127.5t-179 92q-35 -29 -107 -61.5t-160 -32.5
q-182 0 -294.5 103.5t-112.5 299.5t116 322.5t320 126.5q166 0 293 -80v-551q0 -59 31.5 -97t114 -38t160 104.5t77.5 276.5q0 322 -177 494.5t-499 172.5t-522.5 -201.5t-200.5 -509.5q0 -309 200.5 -507.5t499.5 -198.5t482 113v-88q-210 -103 -479 -103
q-176 0 -321.5 59.5t-249 164t-161 250t-57.5 315.5z" />
    <glyph glyph-name="A" unicode="A" horiz-adv-x="1310" 
d="M659 1309h-4l-319 -748h637zM1212 0l-202 471h-711l-205 -471h-98l622 1423h84l613 -1423h-103z" />
    <glyph glyph-name="B" unicode="B" horiz-adv-x="1243" 
d="M993 1065q0 133 -90 201.5t-303 68.5h-334v-553h322q205 0 305 75t100 208zM1055 396q0 148 -109.5 223t-361.5 75h-318v-606h322q229 0 348 80t119 228zM815 739q338 -43 338 -337q0 -174 -140 -288t-423 -114h-414v1423h434q373 0 427.5 -135t54.5 -210
q0 -135 -77.5 -221t-199.5 -114v-4z" />
    <glyph glyph-name="C" unicode="C" horiz-adv-x="1343" 
d="M823 1356q-289 0 -448.5 -179.5t-159.5 -467.5q0 -289 172 -465t440 -176q162 0 263.5 33.5t175.5 74.5v-102q-192 -99 -453 -99q-299 0 -497.5 200t-198.5 536q0 337 194 537t525 200q224 0 397 -76v-106q-170 90 -410 90z" />
    <glyph glyph-name="D" unicode="D" horiz-adv-x="1468" 
d="M268 1333v-1243h326q298 0 478.5 166t180.5 460t-172 453.5t-512 163.5h-301zM176 0v1423h393q393 0 588 -182t195 -510t-207.5 -529.5t-548.5 -201.5h-420z" />
    <glyph glyph-name="E" unicode="E" horiz-adv-x="1138" 
d="M1020 1335h-752v-567h684v-88h-684v-592h787v-88h-877v1423h842v-88z" />
    <glyph glyph-name="F" unicode="F" horiz-adv-x="1095" 
d="M1024 1335h-758v-616h721v-88h-721v-631h-90v1423h848v-88z" />
    <glyph glyph-name="G" unicode="G" horiz-adv-x="1452" 
d="M1311 117q-220 -142 -511 -142t-487 199.5t-196 532.5t202.5 537t538.5 204q238 0 418 -82v-109q-205 99 -426 99q-295 0 -465 -182.5t-170 -465.5t168 -461.5t440 -178.5q225 0 398 96v469h-410v88h500v-604z" />
    <glyph glyph-name="H" unicode="H" horiz-adv-x="1445" 
d="M1180 696h-914v-696h-90v1423h90v-639h914v639h90v-1423h-90v696z" />
    <glyph glyph-name="I" unicode="I" horiz-adv-x="442" 
d="M176 1423h90v-1423h-90v1423z" />
    <glyph glyph-name="J" unicode="J" horiz-adv-x="993" 
d="M23 145q140 -84 365 -84q85 0 217 61t132 370v931h90v-934q0 -365 -171 -439.5t-295 -74.5t-211 26t-127 48v96z" />
    <glyph glyph-name="K" unicode="K" horiz-adv-x="1175" 
d="M266 711v-711h-90v1423h90v-702h2l733 702h138l-746 -704l764 -719h-143l-746 711h-2z" />
    <glyph glyph-name="L" unicode="L" horiz-adv-x="1054" 
d="M176 1423h90v-1335h778v-88h-868v1423z" />
    <glyph glyph-name="M" unicode="M" horiz-adv-x="1742" 
d="M1483 0v1221h-4l-576 -1145h-61l-578 1145h-4v-1221h-84v1423h82l610 -1218h4l619 1218h76v-1423h-84z" />
    <glyph glyph-name="N" unicode="N" horiz-adv-x="1515" 
d="M1341 0h-65l-1014 1251h-4q2 -94 2 -117v-1134h-86v1423h66l1009 -1257h8q-2 59 -2 78v1179h86v-1423z" />
    <glyph glyph-name="O" unicode="O" horiz-adv-x="1658" 
d="M117 714q0 155 52 290t146.5 233t225.5 154.5t295 56.5t298 -56.5t271 -205.5t137 -468t-201 -531t-524 -212q-322 0 -511 209t-189 530zM384 245q169 -177 444 -177t445.5 181t170.5 468t-163.5 463t-445.5 176t-451 -179.5t-169 -467.5q0 -287 169 -464z" />
    <glyph glyph-name="P" unicode="P" horiz-adv-x="1191" 
d="M266 618h305q231 0 343 98.5t112 280.5t-119 260t-323 78h-318v-717zM590 1423q534 0 534 -422q0 -215 -137 -343t-409 -128h-312v-530h-90v1423h414z" />
    <glyph glyph-name="Q" unicode="Q" horiz-adv-x="1658" 
d="M1444 711q0 293 -163.5 469t-445.5 176t-451 -179.5t-169 -467.5q0 -287 169 -464t443 -177q177 0 318 79l-217 269l67 55l222 -274q227 179 227 514zM117 712q0 319 200.5 527.5t518.5 208.5q164 0 298 -56.5t271 -205.5t137 -475q0 -182 -70.5 -334t-197.5 -252
l242 -299l-66 -55l-248 305q-168 -101 -357 -101q-350 0 -539 209t-189 528z" />
    <glyph glyph-name="R" unicode="R" horiz-adv-x="1247" 
d="M266 682h377q203 0 293 97t90 235q0 237 -150.5 278t-263.5 41h-346v-651zM266 594v-594h-90v1423h453q384 0 439.5 -156.5t55.5 -250.5q0 -162 -96 -272.5t-283 -141.5l447 -602h-115l-440 594h-371z" />
    <glyph glyph-name="S" unicode="S" horiz-adv-x="1150" 
d="M553 68q195 0 295 84t100 214t-91 190t-255 105q-165 46 -326 110t-161 298q0 164 134.5 271.5t341.5 107.5t382 -72v-106q-25 10 -109.5 48t-270.5 38q-185 0 -283.5 -79t-98.5 -201t89 -189t310 -129q221 -63 295 -116.5t106.5 -116t32.5 -142.5q0 -170 -123.5 -289
t-384.5 -119t-425 107v111q189 -125 442 -125z" />
    <glyph glyph-name="T" unicode="T" horiz-adv-x="1097" 
d="M504 1335h-498v88h1086v-88h-498v-1335h-90v1335z" />
    <glyph glyph-name="U" unicode="U" horiz-adv-x="1404" 
d="M166 469v954h90v-940q0 -219 110.5 -317t345.5 -98t437 63v1292h90v-1357q-264 -91 -533 -91q-268 0 -404 119t-136 375z" />
    <glyph glyph-name="V" unicode="V" horiz-adv-x="1273" 
d="M670 -12h-86l-572 1435h101l512 -1308h4l547 1308h96z" />
    <glyph glyph-name="W" unicode="W" horiz-adv-x="2011" 
d="M1108 948q-68 205 -104 336h-5q-23 -76 -55.5 -167t-62.5 -177l-342 -952h-68l-438 1435h94l322 -1069q44 -145 59 -204h4q16 47 31.5 95t42.5 120l383 1058h75l340 -1061q20 -61 40 -118.5t30 -104.5h4q41 137 70 217l350 1067h92l-475 -1435h-80z" />
    <glyph glyph-name="X" unicode="X" horiz-adv-x="1191" 
d="M655 705l516 -705h-116l-463 635l-461 -635h-113l517 705l-512 718h116l457 -651l467 651h113z" />
    <glyph glyph-name="Y" unicode="Y" horiz-adv-x="1085" 
d="M588 0h-90v551l-535 872h107l473 -778l481 778h106l-542 -872v-551z" />
    <glyph glyph-name="Z" unicode="Z" horiz-adv-x="1259" 
d="M106 1423h1078v-69l-1012 -1266h1042v-88h-1161v76l1006 1259h-953v88z" />
    <glyph glyph-name="bracketleft" unicode="[" horiz-adv-x="600" 
d="M479 1503h-272v-1757h272v-74h-352v1905h352v-74z" />
    <glyph glyph-name="backslash" unicode="\" horiz-adv-x="677" 
d="M643 -100l-700 1636h86l700 -1636h-86z" />
    <glyph glyph-name="bracketright" unicode="]" horiz-adv-x="600" 
d="M127 -254h272v1757h-272v74h352v-1905h-352v74z" />
    <glyph glyph-name="asciicircum" unicode="^" horiz-adv-x="1118" 
d="M977 614l-416 723h-4l-416 -723h-94l481 832h62l481 -832h-94z" />
    <glyph glyph-name="underscore" unicode="_" horiz-adv-x="1017" 
d="M-29 -297h1076v-72h-1076v72z" />
    <glyph glyph-name="grave" unicode="`" horiz-adv-x="514" 
d="M137 1448l213 -301h-96l-231 301h114z" />
    <glyph glyph-name="a" unicode="a" horiz-adv-x="1032" 
d="M498 59q149 0 299 50v362q-51 6 -118 15.5t-159 9.5q-170 0 -248.5 -62.5t-78.5 -154.5q0 -220 305 -220zM102 272q0 312 443 312q131 0 252 -27v49q0 247 -112 273t-181 26q-151 0 -328 -84v90q171 82 355 82t267 -93t83 -279v-572q-175 -76 -394 -76q-385 0 -385 299z
" />
    <glyph glyph-name="b" unicode="b" horiz-adv-x="1134" 
d="M832.5 175q113.5 118 113.5 309t-98 307t-275 116t-323 -100v-707q92 -43 256 -43q213 0 326.5 118zM250 897q140 96 342 96t325 -140t123 -372q0 -231 -145 -370.5t-367 -139.5q-223 0 -366 62v1478h88v-614z" />
    <glyph glyph-name="c" unicode="c" horiz-adv-x="974" 
d="M596 -29q-226 0 -364 140t-138 368t136 371t372 143q162 0 279 -57v-100q-124 71 -297 71q-174 0 -285 -109.5t-111 -302.5t109 -315.5t297 -122.5q111 0 192.5 24.5t118.5 45.5v-92q-125 -64 -309 -64z" />
    <glyph glyph-name="d" unicode="d" horiz-adv-x="1134" 
d="M973 57q-167 -86 -391 -86q-223 0 -355.5 132.5t-132.5 365t135.5 378.5t384.5 146q139 0 271 -51v569h88v-1454zM188 471q0 -283 149.5 -348.5t285.5 -65.5t262 54v737q-145 59 -275 59q-197 0 -309.5 -117.5t-112.5 -318.5z" />
    <glyph glyph-name="e" unicode="e" horiz-adv-x="1050" 
d="M561 907q-156 0 -253 -97t-113 -261h688q0 250 -119 304t-203 54zM909 59q-148 -88 -352 -88t-331.5 131.5t-127.5 368.5q0 236 129.5 379t337.5 143q207 0 308.5 -130t101.5 -335q0 -33 -4 -65h-781q0 -178 101.5 -292t288.5 -114q106 0 194 32t135 65v-95z" />
    <glyph glyph-name="f" unicode="f" horiz-adv-x="591" 
d="M561 1446q-254 0 -254 -293v-184h320v-82h-320v-887h-88v887h-162v82h162v190q0 168 90 268.5t254 100.5q79 0 139 -19v-84q-84 21 -141 21z" />
    <glyph glyph-name="g" unicode="g" horiz-adv-x="1128" 
d="M184 464q0 -192 105.5 -299.5t275.5 -107.5t314 93v712q-132 45 -259 45q-224 0 -330 -125.5t-106 -317.5zM879 57q-140 -86 -333 -86t-324.5 135.5t-131.5 364.5q0 228 141 375t385 147q129 0 216.5 -24.5t134.5 -40.5v-934q0 -355 -178.5 -429.5t-305.5 -74.5
t-208.5 23.5t-135.5 42.5v100q170 -80 350 -80t285 96.5t105 317.5v67z" />
    <glyph glyph-name="h" unicode="h" horiz-adv-x="1105" 
d="M586 909q-150 0 -336 -108v-801h-88v1511h88v-620q98 66 201.5 84t152.5 18q350 0 350 -372v-621h-88v596q0 164 -65 238.5t-215 74.5z" />
    <glyph glyph-name="i" unicode="i" horiz-adv-x="409" 
d="M147 1327h115v-117h-115v117zM160 969h88v-969h-88v969z" />
    <glyph glyph-name="j" unicode="j" horiz-adv-x="409" 
d="M147 1327h115v-117h-115v117zM-80 -418q127 0 183.5 84t56.5 244v1059h88v-1082q0 -200 -93.5 -294.5t-236.5 -94.5q-54 0 -86 8v88q42 -12 88 -12z" />
    <glyph glyph-name="k" unicode="k" horiz-adv-x="933" 
d="M250 506v-506h-88v1511h88v-995h4l502 453h137l-518 -459l514 -510h-129l-506 506h-4z" />
    <glyph glyph-name="l" unicode="l" horiz-adv-x="409" 
d="M162 1511h88v-1511h-88v1511z" />
    <glyph glyph-name="m" unicode="m" horiz-adv-x="1712" 
d="M506 993q244 0 330 -90q177 90 376 90q282 0 315.5 -127t33.5 -190v-676h-88v662q0 120 -64.5 183.5t-196.5 63.5t-219.5 -31.5t-111.5 -46.5q24 -55 24 -157v-674h-88v668q0 197 -107.5 219t-210.5 22t-249 -39v-870h-88v932q207 61 344 61z" />
    <glyph glyph-name="n" unicode="n" horiz-adv-x="1105" 
d="M591 993q191 0 277 -83t86 -251v-659h-88v637q0 149 -63.5 210.5t-229.5 61.5t-323 -47v-862h-88v932q238 61 429 61z" />
    <glyph glyph-name="o" unicode="o" horiz-adv-x="1175" 
d="M298.5 176q110.5 -119 292.5 -119q181 0 288.5 117t107.5 306t-105.5 308t-293 119t-294 -118t-106.5 -306t110.5 -307zM94 483.5q0 108.5 36 201.5t101.5 161.5t155.5 107.5t200.5 39t202 -39t156 -107.5t100 -161.5t35.5 -201.5t-35.5 -202t-100 -163t-156 -108.5
t-202 -39t-201.5 39t-155.5 107.5t-100.5 163t-36 203z" />
    <glyph glyph-name="p" unicode="p" horiz-adv-x="1130" 
d="M162 899q177 94 397 94q219 0 350 -133t131 -366t-144 -378t-374 -145q-162 0 -272 60v-512h-88v1380zM946 486q0 198 -106.5 309.5t-285.5 111.5t-304 -61v-721q122 -68 293 -68t287 115.5t116 313.5z" />
    <glyph glyph-name="q" unicode="q" horiz-adv-x="1124" 
d="M629 907q-136 0 -290.5 -73t-154.5 -370q0 -192 105.5 -299.5t275.5 -107.5t314 93v718q-114 39 -250 39zM879 57q-140 -86 -333 -86t-324.5 135.5t-131.5 364.5q0 228 141 375t385 147q178 0 351 -59v-1415h-88v538z" />
    <glyph glyph-name="r" unicode="r" horiz-adv-x="700" 
d="M470 909q-116 0 -220 -43v-866h-88v928q164 65 346 65q78 0 170 -16v-84q-92 16 -208 16z" />
    <glyph glyph-name="s" unicode="s" horiz-adv-x="841" 
d="M100 135q124 -76 336 -76q104 0 168 49.5t64 131.5t-60 119t-214 82.5t-228 103.5t-74 174t95 194t261 78t257 -47v-96q-115 59 -259 59q-143 0 -203.5 -52t-60.5 -133t65 -121.5t163 -70.5q191 -59 269.5 -115.5t78.5 -172.5q0 -175 -130 -221t-225 -46q-192 0 -303 62
v98z" />
    <glyph glyph-name="t" unicode="t" horiz-adv-x="600" 
d="M467 -18q-277 0 -277 321v584h-184v82h184v291h89v-291h327v-82h-327v-572q0 -139 53 -195.5t134 -56.5t140 17v-78q-58 -20 -139 -20z" />
    <glyph glyph-name="u" unicode="u" horiz-adv-x="1105" 
d="M152 344v625h88v-602q0 -153 72 -230.5t266 -77.5q138 0 278 39v871h88v-936q-526 -135 -659 -0.5t-133 311.5z" />
    <glyph glyph-name="v" unicode="v" horiz-adv-x="884" 
d="M473 0h-90l-399 969h96l252 -623q16 -41 40 -100t56 -146h4q67 164 107 248l272 621h96z" />
    <glyph glyph-name="w" unicode="w" horiz-adv-x="1591" 
d="M883 639q-52 129 -72 215h-6q-24 -81 -78 -217l-250 -637h-86l-338 969h90l248 -723q23 -68 43 -137h6q21 76 64 182l270 678h76l268 -721q16 -41 27.5 -78t19.5 -61h6q10 39 23.5 74.5t24.5 64.5l274 721h92l-377 -969h-82z" />
    <glyph glyph-name="x" unicode="x" horiz-adv-x="890" 
d="M506 492l393 -492h-117l-333 430l-334 -430h-109l383 489l-373 480h111l322 -420l323 420h109z" />
    <glyph glyph-name="y" unicode="y" horiz-adv-x="888" 
d="M279 -481h-95l207 475l-399 975h96l231 -570q70 -169 119 -311h4q50 135 127 309l248 572h98z" />
    <glyph glyph-name="z" unicode="z" horiz-adv-x="897" 
d="M76 969h760v-74q-110 -141 -324 -390t-354 -427h702v-78h-811v74l676 817h-649v78z" />
    <glyph glyph-name="braceleft" unicode="{" horiz-adv-x="600" 
d="M221 868v406q0 166 80 234.5t240 68.5v-74q-137 0 -188.5 -54t-51.5 -179v-391q0 -163 -67.5 -204.5t-96.5 -49.5v-4q107 -30 135.5 -115.5t28.5 -149.5v-393q0 -113 54.5 -165t185.5 -52v-74q-164 0 -242 65.5t-78 223.5v406q0 92 -43 152.5t-143 64.5v80q186 8 186 204
z" />
    <glyph glyph-name="bar" unicode="|" horiz-adv-x="548" 
d="M231 -512v2048h84v-2048h-84z" />
    <glyph glyph-name="braceright" unicode="}" horiz-adv-x="600" 
d="M395 381v-406q0 -166 -79.5 -234.5t-239.5 -68.5v74q199 0 219 87t20 147v391q0 201 164 254v4q-107 30 -135.5 114t-28.5 150v393q0 113 -54 165t-185 52v74q164 0 241.5 -65.5t77.5 -223.5v-405q0 -92 43 -152.5t144 -64.5v-80q-187 -8 -187 -205z" />
    <glyph glyph-name="asciitilde" unicode="~" horiz-adv-x="1118" 
d="M61 565q123 174 271 174q82 0 139 -21.5t110.5 -56t96.5 -51t102 -16.5q124 0 209 139l68 -45q-41 -72 -110.5 -125t-151.5 -53t-136.5 20t-101.5 48q-85 52 -124 65.5t-99 13.5q-117 0 -205 -141z" />
    <glyph glyph-name="uni00A0" unicode="&#xa0;" horiz-adv-x="479" 
 />
    <glyph glyph-name="exclamdown" unicode="&#xa1;" horiz-adv-x="501" 
d="M319 831h-137v138h137v-138zM201 -455l6 1047h78l4 -1047h-88z" />
    <glyph glyph-name="cent" unicode="&#xa2;" horiz-adv-x="1118" 
d="M233 731q0 -176 93 -295t256 -135v844q-156 -20 -252.5 -129t-96.5 -285zM664 -29h-82v244q-206 16 -324.5 152t-118.5 347t120 354t323 163v231h82v-227q171 -7 278 -57v-101q-116 65 -278 72v-850q161 6 278 70v-93q-114 -56 -278 -63v-242z" />
    <glyph glyph-name="sterling" unicode="&#xa3;" horiz-adv-x="1118" 
d="M796 1362q-141 0 -209.5 -38t-117.5 -118t-49 -256v-209h463v-82h-463v-202q0 -158 -51.5 -247t-118.5 -126h786v-84h-958v84q108 17 181 94t73 275v206h-223v82h223v205q0 338 151.5 420t293.5 82t272 -43v-98q-112 55 -253 55z" />
    <glyph glyph-name="currency" unicode="&#xa4;" horiz-adv-x="1118" 
d="M798.5 898.5q-98.5 96.5 -245.5 96.5t-240.5 -98t-93.5 -243q0 -144 95 -246.5t242.5 -102.5t244 102t96.5 248q0 147 -98.5 243.5zM985 652q0 -158 -98 -277l157 -158l-55 -55l-158 157q-121 -96 -275 -96t-273 99l-160 -160l-57 55l163 162q-98 120 -98 277
q0 158 94 270l-159 157l57 54l156 -158q136 102 283 102t272 -102l155 158l55 -54l-153 -155q94 -118 94 -276z" />
    <glyph glyph-name="yen" unicode="&#xa5;" horiz-adv-x="1118" 
d="M598 629v-267h373v-81h-373v-281h-86v281h-385v81h385v267h-385v82h385v4l-455 708h105l393 -626l401 626h105l-463 -708v-4h373v-82h-373z" />
    <glyph glyph-name="brokenbar" unicode="&#xa6;" horiz-adv-x="548" 
d="M231 -512v844h84v-844h-84zM231 692v844h84v-844h-84z" />
    <glyph glyph-name="section" unicode="&#xa7;" horiz-adv-x="1021" 
d="M743 608q0 100 -52 146t-149 82t-114 45q-166 -74 -166 -228q0 -99 50.5 -144.5t191.5 -98.5q18 -8 36.5 -14.5t34.5 -14.5q168 75 168 227zM662 334q120 -82 120 -216q0 -141 -88 -227t-252 -86q-103 0 -217 35v92q126 -43 234 -43t170.5 56.5t62.5 149.5t-50 137.5
t-148 83.5t-210 90t-112 249q0 86 43 158t129 113q-121 84 -121 218q0 141 87.5 226.5t252.5 85.5q112 0 217 -35v-92q-126 43 -234 43t-170.5 -56t-62.5 -149q0 -131 89.5 -174t148.5 -65q146 -53 214.5 -119.5t68.5 -202.5q0 -86 -43 -158.5t-129 -113.5z" />
    <glyph glyph-name="dieresis" unicode="&#xa8;" horiz-adv-x="571" 
d="M377 1327h115v-117h-115v117zM90 1327h115v-117h-115v117z" />
    <glyph glyph-name="copyright" unicode="&#xa9;" horiz-adv-x="1654" 
d="M168 710.5q0 -137.5 52 -257t141.5 -208.5t209 -141.5t257 -52.5t257 52.5t208.5 141.5t141.5 208.5t52.5 257t-52.5 257t-141.5 209t-208.5 141.5t-257 52t-257 -52t-209 -141.5t-141.5 -209t-52 -257zM80 710.5q0 153.5 59.5 290t160.5 236.5t237.5 158.5t290 58.5
t289.5 -58.5t237.5 -158.5t160 -236.5t58.5 -290t-58.5 -288.5t-160 -235.5t-237.5 -159t-289.5 -58.5t-290 58.5t-237.5 159t-160.5 235.5t-59.5 288.5zM1112 334q-100 -60 -276 -60t-299 118t-123 319q0 200 124 322t330 122q140 0 244 -45v-82q-131 51 -233 51
q-187 0 -283 -100t-96 -269t99 -262.5t255 -93.5q96 0 153.5 19.5t104.5 42.5v-82z" />
    <glyph glyph-name="ordfeminine" unicode="&#xaa;" horiz-adv-x="749" 
d="M356 1130q-83 0 -131.5 -36.5t-48.5 -94.5q0 -135 186 -135q81 0 179 29v223q-102 14 -185 14zM354 795q-258 0 -258 198q0 92 65.5 149.5t217.5 57.5q60 0 162 -14v31q0 106 -47.5 143t-139.5 37t-209 -54v76q105 51 234 51t184 -62t55 -185v-379q-113 -49 -264 -49z
" />
    <glyph glyph-name="guillemotleft" unicode="&#xab;" horiz-adv-x="940" 
d="M389 846h107l-265 -367l265 -366h-107l-262 366zM719 846h106l-264 -367l264 -366h-106l-262 366z" />
    <glyph glyph-name="logicalnot" unicode="&#xac;" horiz-adv-x="1118" 
d="M954 246v395h-872v82h954v-477h-82z" />
    <glyph glyph-name="uni00AD" unicode="&#xad;" horiz-adv-x="823" 
d="M100 479v88h623v-88h-623z" />
    <glyph glyph-name="registered" unicode="&#xae;" horiz-adv-x="1095" 
d="M666 1086q0 46 -27 74t-80 28h-104v-201h98q47 0 80 26.5t33 72.5zM553 1257q195 0 195 -161q0 -59 -33 -99.5t-92 -56.5l21 -30q24 -34 53.5 -73.5t53.5 -73.5l21 -30h-98l-127 191h-92v-191h-76v524h174zM940 991q0 161 -114 277t-278 116t-278 -116t-114 -277
t114 -277t278 -116t278 116t114 277zM1014 991q0 -96 -37 -181t-99.5 -148.5t-147.5 -99.5t-181 -36t-181 36t-148.5 99.5t-100.5 148.5t-37 181t37 181t100.5 148.5t148.5 100.5t181 37t181 -37t147.5 -100.5t99.5 -148.5t37 -181z" />
    <glyph glyph-name="macron" unicode="&#xaf;" horiz-adv-x="571" 
d="M51 1247v76h469v-76h-469z" />
    <glyph glyph-name="degree" unicode="&#xb0;" horiz-adv-x="843" 
d="M621 1176q0 43 -15.5 79.5t-42 64.5t-62.5 44t-77 16t-78 -16t-64.5 -44t-44 -64.5t-16.5 -101.5t57.5 -124t143.5 -59q133 0 166 81t33 124zM700 1175.5q0 -59.5 -21.5 -110.5t-58 -88t-87 -58.5t-109.5 -21.5t-111.5 21.5t-90.5 58.5t-59.5 88t-21.5 110.5t21.5 110.5
t59.5 88t89 58.5t110.5 21.5t111 -21.5t88 -58.5t58 -88t21.5 -110.5z" />
    <glyph glyph-name="plusminus" unicode="&#xb1;" horiz-adv-x="1118" 
d="M1036 82v-82h-954v82h954zM600 811h436v-82h-436v-436h-82v436h-436v82h436v436h82v-436z" />
    <glyph glyph-name="twosuperior" unicode="&#xb2;" 
d="M397 1561q-121 0 -243 -88v86q47 29 106 53t152 24q137 0 203.5 -73.5t66.5 -180.5q0 -137 -85 -232t-144 -155l-236 -237h490v-80h-594v82l295 299q109 113 149.5 177t40.5 138q0 123 -72.5 155t-128.5 32z" />
    <glyph glyph-name="threesuperior" unicode="&#xb3;" 
d="M453 1163q215 -39 215 -223t-121 -228t-236 -44t-211 47v88q35 -25 104.5 -42.5t135.5 -17.5q125 0 183.5 55.5t58.5 148.5q0 171 -271 171h-100v78h94q115 0 185.5 54.5t70.5 137.5q0 177 -213 177q-116 0 -225 -68v84q100 59 237 59q219 0 253 -95t34 -143
q0 -86 -54 -148.5t-140 -88.5v-2z" />
    <glyph glyph-name="acute" unicode="&#xb4;" horiz-adv-x="571" 
d="M545 1448l-232 -301h-96l213 301h115z" />
    <glyph glyph-name="mu" unicode="&#xb5;" horiz-adv-x="1122" 
d="M956 68q-194 -97 -370 -97q-249 0 -334 135v-620h-88v1483h88v-549q0 -207 83 -286t251 -79q98 0 163.5 19.5t118.5 42.5v852h88v-901z" />
    <glyph glyph-name="paragraph" unicode="&#xb6;" horiz-adv-x="1136" 
d="M881 -129h-80v1479h-248v-1479h-80v844q-170 0 -277.5 96t-107.5 258t111 258t293 96h389v-1552z" />
    <glyph glyph-name="periodcentered" unicode="&#xb7;" horiz-adv-x="473" 
d="M168 715h137v-137h-137v137z" />
    <glyph glyph-name="cedilla" unicode="&#xb8;" horiz-adv-x="571" 
d="M253 -457q-92 0 -181 29v70q102 -35 179 -35t111.5 31.5t34.5 77.5t-32.5 75t-104.5 31l-78 2l60 176h69l-43 -123q198 0 205 -158q0 -86 -64 -131t-156 -45z" />
    <glyph glyph-name="onesuperior" unicode="&#xb9;" 
d="M180 1464q0 5 2 27l291 145h43v-958h-80v856l-256 -127v57z" />
    <glyph glyph-name="ordmasculine" unicode="&#xba;" horiz-adv-x="821" 
d="M166 1132.5q0 -116.5 67.5 -191.5t181.5 -75t177 75t63 190t-63.5 190.5t-180 75.5t-181 -74t-64.5 -190.5zM648 1375q91 -95 91 -242t-90.5 -243.5t-238 -96.5t-238 96.5t-90.5 244t92.5 242t237.5 94.5t236 -95z" />
    <glyph glyph-name="guillemotright" unicode="&#xbb;" horiz-adv-x="940" 
d="M563 113h-106l264 366l-264 367h106l262 -367zM233 113h-106l264 366l-264 367h106l263 -367z" />
    <glyph glyph-name="onequarter" unicode="&#xbc;" horiz-adv-x="1742" 
d="M379 0h-96l1036 1423h96zM117 1244q0 20 2 42l291 146h43v-959h-80v856l-256 -127v42zM1356 799h-4q-22 -35 -58 -88l-280 -398h342v486zM1432 240v-240h-76v240h-434v63l450 637h60v-627h170v-73h-170z" />
    <glyph glyph-name="onehalf" unicode="&#xbd;" horiz-adv-x="1849" 
d="M379 0h-96l1036 1423h96zM117 1244q0 20 2 42l291 146h43v-959h-80v856l-256 -127v42zM1421 961q137 0 204 -74t67 -177t-52 -185q-52 -81 -178 -206l-235 -237h489v-80h-594v82l295 299q111 115 140 160q76 118 39 224q-37 115 -189 118q-120 0 -244 -88v86
q47 29 107 53t151 25z" />
    <glyph glyph-name="threequarters" unicode="&#xbe;" horiz-adv-x="1904" 
d="M520 0h-96l1036 1423h96zM504 958q215 -39 215 -222t-180 -251q-61 -23 -177 -23t-210 48v88q34 -25 104 -42t135 -17q125 0 183 55t58 148q1 171 -270 171h-100v78h94q115 1 186 55q70 54 70 137q-1 177 -213 177q-111 0 -225 -68v84q98 58 207 59t164 -19
q153 -54 153 -220q0 -86 -55 -149t-139 -86v-3zM1493 799h-4q-11 -16 -27 -41t-30 -47l-281 -398h342v486zM1569 240v-240h-76v240h-434v63l450 637h60v-627h170v-73h-170z" />
    <glyph glyph-name="questiondown" unicode="&#xbf;" horiz-adv-x="915" 
d="M606 831h-137v138h137v-138zM836 -395q-151 -84 -338 -84q-186 0 -285.5 101.5t-99.5 260.5q0 224 144 343.5t237 179.5v186h90v-227q-208 -136 -268 -205.5t-85.5 -131t-25.5 -137.5q0 -129 78.5 -207.5t206.5 -78.5t210 30.5t136 59.5v-90z" />
    <glyph glyph-name="Agrave" unicode="&#xc0;" horiz-adv-x="1310" 
d="M659 1309h-4l-319 -748h637zM1212 0l-202 471h-711l-205 -471h-98l622 1423h84l613 -1423h-103zM516 1812l186 -262h-96l-200 262h110z" />
    <glyph glyph-name="Aacute" unicode="&#xc1;" horiz-adv-x="1310" 
d="M659 1309h-4l-319 -748h637zM1212 0l-202 471h-711l-205 -471h-98l622 1423h84l613 -1423h-103zM881 1812l-201 -262h-96l186 262h111z" />
    <glyph glyph-name="Acircumflex" unicode="&#xc2;" horiz-adv-x="1310" 
d="M659 1309h-4l-319 -748h637zM1212 0l-202 471h-711l-205 -471h-98l622 1423h84l613 -1423h-103zM1004 1559h-107l-242 213l-239 -213h-109l324 286h49z" />
    <glyph glyph-name="Atilde" unicode="&#xc3;" horiz-adv-x="1310" 
d="M659 1309h-4l-319 -748h637zM1212 0l-202 471h-711l-205 -471h-98l622 1423h84l613 -1423h-103zM440 1746q32 17 85 17q54 0 140 -64q85 -64 132 -64q47 -1 73 38t33 84h72q-10 -80 -52 -138t-121 -58t-160 62t-129 62q-48 1 -73 -38t-32 -80h-72q15 131 104 179z" />
    <glyph glyph-name="Adieresis" unicode="&#xc4;" horiz-adv-x="1310" 
d="M659 1309h-4l-319 -748h637zM1212 0l-202 471h-711l-205 -471h-98l622 1423h84l613 -1423h-103zM741 1696h115v-117h-115v117zM455 1696h114v-117h-114v117z" />
    <glyph glyph-name="Aring" unicode="&#xc5;" horiz-adv-x="1310" 
d="M659 1309h-4l-319 -748h637zM1212 0l-202 471h-711l-205 -471h-98l622 1423h84l613 -1423h-103zM438 1745q0 92 66 155q66 62 155 62t152 -62t65 -155q0 -93 -64 -157t-156 -64t-155 64t-63 157zM809 1746q0 62 -43 104q-42 42 -106 42t-108 -42t-44 -104t44 -108
t108 -45q64 0 106 45q43 45 43 108z" />
    <glyph glyph-name="AE" unicode="&#xc6;" horiz-adv-x="1878" 
d="M918 1335h-11l-465 -774h476v774zM1759 1335h-751v-567h684v-88h-684v-592h786v-88h-876v471h-527l-285 -471h-106l864 1423h895v-88z" />
    <glyph glyph-name="Ccedilla" unicode="&#xc7;" horiz-adv-x="1343" 
d="M777 -393q77 0 112 31.5t35 77.5t-33 75t-105 31l-77 2l51 153q-281 16 -462 217.5t-181 527.5t194 526t525 200q224 0 397 -76v-106q-170 90 -410 90q-289 0 -448.5 -179.5t-159.5 -467.5q0 -289 172 -465t440 -176q162 0 263.5 33.5t175.5 74.5v-102q-162 -96 -437 -99
l-34 -98q197 0 204 -158q0 -87 -64 -131.5t-156 -44.5t-181 29v70q102 -35 179 -35z" />
    <glyph glyph-name="Egrave" unicode="&#xc8;" horiz-adv-x="1138" 
d="M1020 1335h-752v-567h684v-88h-684v-592h787v-88h-877v1423h842v-88zM500 1812l186 -262h-96l-201 262h111z" />
    <glyph glyph-name="Eacute" unicode="&#xc9;" horiz-adv-x="1138" 
d="M1020 1335h-752v-567h684v-88h-684v-592h787v-88h-877v1423h842v-88zM762 1812l-201 -262h-96l186 262h111z" />
    <glyph glyph-name="Ecircumflex" unicode="&#xca;" horiz-adv-x="1138" 
d="M1020 1335h-752v-567h684v-88h-684v-592h787v-88h-877v1423h842v-88zM967 1559h-107l-242 213l-239 -213h-109l324 286h49z" />
    <glyph glyph-name="Edieresis" unicode="&#xcb;" horiz-adv-x="1138" 
d="M1020 1335h-752v-567h684v-88h-684v-592h787v-88h-877v1423h842v-88zM702 1696h115v-117h-115v117zM416 1696h114v-117h-114v117z" />
    <glyph glyph-name="Igrave" unicode="&#xcc;" horiz-adv-x="442" 
d="M176 1423h90v-1423h-90v1423zM96 1812l187 -262h-97l-200 262h110z" />
    <glyph glyph-name="Iacute" unicode="&#xcd;" horiz-adv-x="442" 
d="M176 1423h90v-1423h-90v1423zM428 1812l-201 -262h-96l186 262h111z" />
    <glyph glyph-name="Icircumflex" unicode="&#xce;" horiz-adv-x="442" 
d="M176 1423h90v-1423h-90v1423zM569 1559h-106l-242 213l-239 -213h-109l324 286h49z" />
    <glyph glyph-name="Idieresis" unicode="&#xcf;" horiz-adv-x="442" 
d="M176 1423h90v-1423h-90v1423zM307 1696h115v-117h-115v117zM20 1696h115v-117h-115v117z" />
    <glyph glyph-name="Eth" unicode="&#xd0;" horiz-adv-x="1468" 
d="M268 1333v-581h457v-88h-457v-574h326q298 0 478.5 166t180.5 460t-172 453.5t-512 163.5h-301zM176 0v664h-186v88h186v671h393q393 0 588 -182t195 -510t-207.5 -529.5t-548.5 -201.5h-420z" />
    <glyph glyph-name="Ntilde" unicode="&#xd1;" horiz-adv-x="1515" 
d="M1341 0h-65l-1014 1251h-4q2 -94 2 -187v-1064h-86v1423h66l1009 -1257h8q-2 59 -2 133v1124h86v-1423zM616 1763q66 0 150 -64q85 -64 133 -64q47 -1 74 38t33 84h71q-10 -80 -52 -138t-121 -58t-160 62t-129 62q-49 1 -73 -38t-32 -80h-72q4 37 17 71q43 125 161 125z
" />
    <glyph glyph-name="Ograve" unicode="&#xd2;" horiz-adv-x="1658" 
d="M117 714q0 155 52 290q105 273 372 388q131 56 295 56t298 -56q267 -112 362 -391q46 -135 46 -289q0 -313 -200 -524t-513 -213q-174 0 -307 59q-265 116 -359 390q-46 134 -46 290zM215 710q0 -142 44 -261q88 -238 316 -334q113 -47 251 -47q277 0 448 181
q170 181 170 468t-164 463t-445 176q-282 0 -451 -180q-169 -179 -169 -466zM694 1812l187 -262h-97l-200 262h110z" />
    <glyph glyph-name="Oacute" unicode="&#xd3;" horiz-adv-x="1658" 
d="M117 714q0 155 52 290q105 273 372 388q131 56 295 56t298 -56q267 -112 362 -391q46 -135 46 -289q0 -313 -200 -524t-513 -213q-174 0 -307 59q-265 116 -359 390q-46 134 -46 290zM215 710q0 -142 44 -261q88 -238 316 -334q113 -47 251 -47q277 0 448 181
q170 181 170 468t-164 463t-445 176q-282 0 -451 -180q-169 -179 -169 -466zM1051 1812l-201 -262h-96l186 262h111z" />
    <glyph glyph-name="Ocircumflex" unicode="&#xd4;" horiz-adv-x="1658" 
d="M117 714q0 155 52 290q105 273 372 388q131 56 295 56t298 -56q267 -112 362 -391q46 -135 46 -289q0 -313 -200 -524t-513 -213q-174 0 -307 59q-265 116 -359 390q-46 134 -46 290zM215 710q0 -142 44 -261q88 -238 316 -334q113 -47 251 -47q277 0 448 181
q170 181 170 468t-164 463t-445 176q-282 0 -451 -180q-169 -179 -169 -466zM1178 1559h-107l-242 213l-239 -213h-109l324 286h49z" />
    <glyph glyph-name="Otilde" unicode="&#xd5;" horiz-adv-x="1658" 
d="M117 714q0 155 52 290q105 273 372 388q131 56 295 56t298 -56q267 -112 362 -391q46 -135 46 -289q0 -313 -200 -524t-513 -213q-174 0 -307 59q-265 116 -359 390q-46 134 -46 290zM215 710q0 -142 44 -261q88 -238 316 -334q113 -47 251 -47q277 0 448 181
q170 181 170 468t-164 463t-445 176q-282 0 -451 -180q-169 -179 -169 -466zM614 1746q32 17 85 17q54 0 140 -64q85 -64 132 -64q47 -1 73 38t33 84h72q-10 -80 -52 -138t-121 -58t-160 62t-129 62q-48 1 -73 -38t-32 -80h-72q15 131 104 179z" />
    <glyph glyph-name="Odieresis" unicode="&#xd6;" horiz-adv-x="1658" 
d="M117 714q0 155 52 290q105 273 372 388q131 56 295 56t298 -56q267 -112 362 -391q46 -135 46 -289q0 -313 -200 -524t-513 -213q-174 0 -307 59q-265 116 -359 390q-46 134 -46 290zM215 710q0 -142 44 -261q88 -238 316 -334q113 -47 251 -47q277 0 448 181
q170 181 170 468t-164 463t-445 176q-282 0 -451 -180q-169 -179 -169 -466zM915 1696h115v-117h-115v117zM629 1696h114v-117h-114v117z" />
    <glyph glyph-name="multiply" unicode="&#xd7;" horiz-adv-x="1118" 
d="M559 678l352 352l58 -57l-353 -352l353 -353l-58 -57l-352 352l-352 -352l-57 57l352 353l-352 352l57 57z" />
    <glyph glyph-name="Oslash" unicode="&#xd8;" horiz-adv-x="1658" 
d="M827 1356q-273 0 -442.5 -179.5t-169.5 -480.5t199 -481l762 1049q-145 92 -349 92zM1444 711q0 328 -205 506l-762 -1051q150 -98 350 -98q276 0 446.5 181t170.5 462zM1542 711q0 -312 -201 -524t-512 -212q-237 0 -409 111l-168 -231l-66 45l170 235
q-119 102 -179 251t-60 316t52 302t146.5 233t225.5 154.5t288 56.5q235 0 404 -107l168 232l65 -45l-170 -234q246 -200 246 -583z" />
    <glyph glyph-name="Ugrave" unicode="&#xd9;" horiz-adv-x="1404" 
d="M166 469v954h90v-940q0 -219 111 -317t347 -98t435 63v1292h90v-1357q-264 -91 -533 -91q-268 0 -404 119t-136 375zM598 1812l186 -262h-96l-201 262h111z" />
    <glyph glyph-name="Uacute" unicode="&#xda;" horiz-adv-x="1404" 
d="M166 469v954h90v-940q0 -219 111 -317t347 -98t435 63v1292h90v-1357q-264 -91 -533 -91q-268 0 -404 119t-136 375zM913 1812l-200 -262h-97l187 262h110z" />
    <glyph glyph-name="Ucircumflex" unicode="&#xdb;" horiz-adv-x="1404" 
d="M166 469v954h90v-940q0 -219 111 -317t347 -98t435 63v1292h90v-1357q-264 -91 -533 -91q-268 0 -404 119t-136 375zM1051 1559h-107l-242 213l-239 -213h-109l324 286h49z" />
    <glyph glyph-name="Udieresis" unicode="&#xdc;" horiz-adv-x="1404" 
d="M166 469v954h90v-940q0 -219 111 -317t347 -98t435 63v1292h90v-1357q-264 -91 -533 -91q-268 0 -404 119t-136 375zM788 1696h115v-117h-115v117zM502 1696h114v-117h-114v117z" />
    <glyph glyph-name="Yacute" unicode="&#xdd;" horiz-adv-x="1085" 
d="M588 0h-90v551l-535 872h107l473 -778l481 778h106l-542 -872v-551zM756 1812l-201 -262h-96l186 262h111z" />
    <glyph glyph-name="Thorn" unicode="&#xde;" horiz-adv-x="1191" 
d="M571 362q455 0 455 369q0 260 -170 294t-272 34h-318v-697h305zM176 1423h90v-276h324q287 0 410.5 -108.5t123.5 -313.5t-136 -328t-410 -123h-312v-274h-90v1423z" />
    <glyph glyph-name="germandbls" unicode="&#xdf;" horiz-adv-x="1144" 
d="M748 -25q-143 0 -254 43v99q51 -23 102.5 -40.5t159.5 -17.5t165.5 55.5t57.5 121.5q0 109 -52.5 151.5t-136.5 73.5q-83 30 -183.5 73t-100.5 177t71 178.5t125 70.5t101 81t47 147t-67.5 155.5t-196.5 63.5q-336 0 -336 -418v-989h-88v999q0 248 110.5 370t315.5 122
q160 0 256 -83.5t96 -205.5q0 -121 -52 -193.5t-141 -113.5t-120 -77t-31 -86t15.5 -75.5t44 -45t67.5 -35t125 -45.5t153.5 -87.5t67.5 -186.5q0 -128 -89 -205t-232 -77z" />
    <glyph glyph-name="agrave" unicode="&#xe0;" horiz-adv-x="1032" 
d="M261 119q69 -59 227 -59t309 49v362q-51 6 -118 15t-159 10q-170 0 -249 -62t-79 -159q0 -96 69 -156zM528 584q147 0 269 -27v49q0 246 -168 286q-55 13 -125 13q-151 0 -328 -84v90q171 82 355 82t267 -93t83 -279v-572q-175 -76 -394 -76q-383 0 -385 299
q0 140 104 226q103 86 322 86zM410 1448l213 -301h-97l-231 301h115z" />
    <glyph glyph-name="aacute" unicode="&#xe1;" horiz-adv-x="1032" 
d="M261 119q69 -59 227 -59t309 49v362q-51 6 -118 15t-159 10q-170 0 -249 -62t-79 -159q0 -96 69 -156zM528 584q147 0 269 -27v49q0 246 -168 286q-55 13 -125 13q-151 0 -328 -84v90q171 82 355 82t267 -93t83 -279v-572q-175 -76 -394 -76q-383 0 -385 299
q0 140 104 226q103 86 322 86zM805 1448l-232 -301h-96l213 301h115z" />
    <glyph glyph-name="acircumflex" unicode="&#xe2;" horiz-adv-x="1032" 
d="M261 119q69 -59 227 -59t309 49v362q-51 6 -118 15t-159 10q-170 0 -249 -62t-79 -159q0 -96 69 -156zM528 584q147 0 269 -27v49q0 246 -168 286q-55 13 -125 13q-151 0 -328 -84v90q171 82 355 82t267 -93t83 -279v-572q-175 -76 -394 -76q-383 0 -385 299
q0 140 104 226q103 86 322 86zM504 1448h49l264 -320h-92l-197 240l-196 -240h-92z" />
    <glyph glyph-name="atilde" unicode="&#xe3;" horiz-adv-x="1032" 
d="M261 119q69 -59 227 -59t309 49v362q-51 6 -118 15t-159 10q-170 0 -249 -62t-79 -159q0 -96 69 -156zM528 584q147 0 269 -27v49q0 246 -168 286q-55 13 -125 13q-151 0 -328 -84v90q171 82 355 82t267 -93t83 -279v-572q-175 -76 -394 -76q-383 0 -385 299
q0 140 104 226q103 86 322 86zM662 1266q48 0 74 39t32 84h72q-10 -81 -52 -139t-123 -58q-80 0 -163 68q-141 105 -197 18q-25 -39 -33 -80h-71q14 130 96 174t160 4q37 -18 73 -45q85 -65 132 -65z" />
    <glyph glyph-name="adieresis" unicode="&#xe4;" horiz-adv-x="1032" 
d="M261 119q69 -59 227 -59t309 49v362q-51 6 -118 15t-159 10q-170 0 -249 -62t-79 -159q0 -96 69 -156zM528 584q147 0 269 -27v49q0 246 -168 286q-55 13 -125 13q-151 0 -328 -84v90q171 82 355 82t267 -93t83 -279v-572q-175 -76 -394 -76q-383 0 -385 299
q0 140 104 226q103 86 322 86zM618 1327h115v-117h-115v117zM332 1327h114v-117h-114v117z" />
    <glyph glyph-name="aring" unicode="&#xe5;" horiz-adv-x="1032" 
d="M261 119q69 -59 227 -59t309 49v362q-51 6 -118 15t-159 10q-170 0 -249 -62t-79 -159q0 -96 69 -156zM528 584q147 0 269 -27v49q0 246 -168 286q-55 13 -125 13q-151 0 -328 -84v90q171 82 355 82t267 -93t83 -279v-572q-175 -76 -394 -76q-383 0 -385 299
q0 140 104 226q103 86 322 86zM319 1343q0 91 65 154q65 62 155 63t153 -61t65 -156q1 -93 -63 -156t-154 -64q-91 -1 -156 64t-65 156zM541 1491q-63 0 -107 -42q-44 -43 -45 -105q0 -62 44 -107t108 -45q65 0 107 45t42 107t-43 105q-43 42 -106 42z" />
    <glyph glyph-name="ae" unicode="&#xe6;" horiz-adv-x="1753" 
d="M1264 907q-156 0 -253.5 -97t-113.5 -261h688q0 249 -118.5 303.5t-202.5 54.5zM205 279q0 -220 305 -220q214 0 377 103q-78 119 -78 309q-152 25 -300 25q-147 0 -225.5 -62.5t-78.5 -154.5zM115 272q0 312 442 312q131 0 252 -27v49q0 246 -111.5 272.5t-181.5 26.5
q-148 0 -328 -84v90q171 82 335 82q165 0 246 -60.5t103 -180.5q57 113 160 177t225 64q219 0 319.5 -130.5t100.5 -334.5q0 -33 -4 -65h-780q0 -278 145.5 -342t247.5 -64t190.5 32t135.5 65v-95q-148 -88 -353 -88q-204 0 -323 127q-111 -66 -211 -95.5t-225 -29.5
q-385 0 -385 299z" />
    <glyph glyph-name="ccedilla" unicode="&#xe7;" horiz-adv-x="974" 
d="M554 -393q77 0 111.5 31.5t34.5 77.5t-32.5 75t-104.5 31l-78 2l50 149q-205 20 -323 157t-118 357t136 363t372 143q162 0 279 -57v-100q-124 71 -297 71q-174 0 -285 -109.5t-111 -302.5t109 -315.5t297 -122.5q111 0 192.5 24.5t118.5 45.5v-92q-118 -60 -301 -64
l-33 -94q198 0 205 -158q0 -86 -64 -131t-156 -45t-181 29v70q102 -35 179 -35z" />
    <glyph glyph-name="egrave" unicode="&#xe8;" horiz-adv-x="1050" 
d="M561 907q-156 0 -253 -97t-113 -261h688q0 248 -177 331q-61 27 -145 27zM909 59q-148 -88 -352 -88q-203 0 -331 131t-128 368t129 380t337 143t310 -130q101 -130 101 -335q0 -31 -4 -65h-781q0 -178 102 -292t288 -114q106 0 194 32t135 65v-95zM444 1448l213 -301
h-96l-231 301h114z" />
    <glyph glyph-name="eacute" unicode="&#xe9;" horiz-adv-x="1050" 
d="M561 907q-156 0 -253 -97t-113 -261h688q0 248 -177 331q-61 27 -145 27zM909 59q-148 -88 -352 -88q-203 0 -331 131t-128 368t129 380t337 143t310 -130q101 -130 101 -335q0 -31 -4 -65h-781q0 -178 102 -292t288 -114q106 0 194 32t135 65v-95zM817 1448l-231 -301
h-97l213 301h115z" />
    <glyph glyph-name="ecircumflex" unicode="&#xea;" horiz-adv-x="1050" 
d="M561 907q-156 0 -253 -97t-113 -261h688q0 248 -177 331q-61 27 -145 27zM909 59q-148 -88 -352 -88q-203 0 -331 131t-128 368t129 380t337 143t310 -130q101 -130 101 -335q0 -31 -4 -65h-781q0 -178 102 -292t288 -114q106 0 194 32t135 65v-95zM522 1448h49l265 -320
h-93l-196 240l-197 -240h-92z" />
    <glyph glyph-name="edieresis" unicode="&#xeb;" horiz-adv-x="1050" 
d="M561 907q-156 0 -253 -97t-113 -261h688q0 248 -177 331q-61 27 -145 27zM909 59q-148 -88 -352 -88q-203 0 -331 131t-128 368t129 380t337 143t310 -130q101 -130 101 -335q0 -31 -4 -65h-781q0 -178 102 -292t288 -114q106 0 194 32t135 65v-95zM635 1327h115v-117
h-115v117zM348 1327h115v-117h-115v117z" />
    <glyph glyph-name="igrave" unicode="&#xec;" horiz-adv-x="409" 
d="M160 969h88v-969h-88v969zM57 1448l213 -301h-96l-231 301h114z" />
    <glyph glyph-name="iacute" unicode="&#xed;" horiz-adv-x="409" 
d="M160 969h88v-969h-88v969zM500 1448l-232 -301h-96l213 301h115z" />
    <glyph glyph-name="icircumflex" unicode="&#xee;" horiz-adv-x="409" 
d="M160 969h88v-969h-88v969zM193 1448h49l264 -320h-92l-197 240l-197 -240h-92z" />
    <glyph glyph-name="idieresis" unicode="&#xef;" horiz-adv-x="409" 
d="M160 969h88v-969h-88v969zM303 1327h115v-117h-115v117zM16 1327h115v-117h-115v117z" />
    <glyph glyph-name="eth" unicode="&#xf0;" horiz-adv-x="1175" 
d="M297 178q109 -123 302 -123t290.5 136t97.5 323t-117.5 291t-293.5 104t-282 -119.5t-106 -304t109 -307.5zM1081 511q0 -254 -141 -397t-355 -143t-352.5 145t-138.5 366.5t137 366t347 144.5q209 0 344 -135l4 4q-87 248 -293 424l-256 -162l-43 68l237 147
q-70 62 -237 162l49 70q70 -39 157 -101.5t107 -80.5l193 120l41 -65l-170 -109q266 -241 318 -468.5t52 -355.5z" />
    <glyph glyph-name="ntilde" unicode="&#xf1;" horiz-adv-x="1105" 
d="M591 993q191 0 277 -83t86 -251v-659h-88v637q0 149 -63 210q-63 62 -211 62q-208 0 -342 -47v-862h-88v932q238 61 429 61zM700 1266q47 0 74 39t33 84h72q-11 -81 -53 -139t-123 -58t-162 68q-141 105 -197 18q-25 -39 -33 -80h-71q14 130 96 174t160 4q37 -18 73 -45
q84 -65 131 -65z" />
    <glyph glyph-name="ograve" unicode="&#xf2;" horiz-adv-x="1175" 
d="M188 484q0 -188 111 -308q111 -119 293 -119t289 118q108 118 107 307q-1 188 -107 306q-106 119 -293 119t-294 -118q-106 -117 -106 -305zM94 482q0 220 138 365q138 146 357 146q218 0 356 -146t137 -364t-138 -365t-356 -147q-220 0 -357 146q-137 145 -137 365z
M451 1448l213 -301h-97l-231 301h115z" />
    <glyph glyph-name="oacute" unicode="&#xf3;" horiz-adv-x="1175" 
d="M188 484q0 -188 111 -308q111 -119 293 -119t289 118q108 118 107 307q-1 188 -107 306q-106 119 -293 119t-294 -118q-106 -117 -106 -305zM94 482q0 220 138 365q138 146 357 146q218 0 356 -146t137 -364t-138 -365t-356 -147q-220 0 -357 146q-137 145 -137 365z
M834 1448l-232 -301h-96l213 301h115z" />
    <glyph glyph-name="ocircumflex" unicode="&#xf4;" horiz-adv-x="1175" 
d="M188 484q0 -188 111 -308q111 -119 293 -119t289 118q108 118 107 307q-1 188 -107 306q-106 119 -293 119t-294 -118q-106 -117 -106 -305zM94 482q0 220 138 365q138 146 357 146q218 0 356 -146t137 -364t-138 -365t-356 -147q-220 0 -357 146q-137 145 -137 365z
M567 1448h49l265 -320h-93l-196 240l-197 -240h-92z" />
    <glyph glyph-name="otilde" unicode="&#xf5;" horiz-adv-x="1175" 
d="M188 484q0 -188 111 -308q111 -119 293 -119t289 118q108 118 107 307q-1 188 -107 306q-106 119 -293 119t-294 -118q-106 -117 -106 -305zM94 482q0 220 138 365q138 146 357 146q218 0 356 -146t137 -364t-138 -365t-356 -147q-220 0 -357 146q-137 145 -137 365z
M853 1250q-42 -58 -122 -58t-164 68q-143 105 -197 18q-24 -39 -32 -80h-72q14 131 104 179q74 39 152 -1q37 -18 74 -45q84 -65 131 -65t74 39t33 84h71q-10 -81 -52 -139z" />
    <glyph glyph-name="odieresis" unicode="&#xf6;" horiz-adv-x="1175" 
d="M188 484q0 -188 111 -308q111 -119 293 -119t289 118q108 118 107 307q-1 188 -107 306q-106 119 -293 119t-294 -118q-106 -117 -106 -305zM94 482q0 220 138 365q138 146 357 146q218 0 356 -146t137 -364t-138 -365t-356 -147q-220 0 -357 146q-137 145 -137 365z
M674 1327h114v-117h-114v117zM387 1327h115v-117h-115v117z" />
    <glyph glyph-name="divide" unicode="&#xf7;" horiz-adv-x="1118" 
d="M492 301h137v-137h-137v137zM492 1079h137v-137h-137v137zM82 580v82h954v-82h-954z" />
    <glyph glyph-name="oslash" unicode="&#xf8;" horiz-adv-x="1175" 
d="M602 909q-201 0 -307.5 -118t-106.5 -310t117 -313l498 686q-91 55 -201 55zM987 487q0 195 -123 318l-497 -688q91 -61 203 -61q202 -1 309.5 117.5t107.5 313.5zM915 874q166 -149 166 -379t-136 -377t-357 -147q-150 0 -273 74l-137 -190l-65 45l141 194
q-160 144 -160 376q0 233 139 378t355 145q149 0 264 -71l141 196l66 -45z" />
    <glyph glyph-name="ugrave" unicode="&#xf9;" horiz-adv-x="1105" 
d="M152 344v625h88v-602q0 -151 72 -229q72 -79 266 -79q138 0 278 39v871h88v-936q-384 -98 -578 -30q-154 54 -195 194q-19 68 -19 147zM418 1448l213 -301h-96l-232 301h115z" />
    <glyph glyph-name="uacute" unicode="&#xfa;" horiz-adv-x="1105" 
d="M152 344v625h88v-602q0 -151 72 -229q72 -79 266 -79q138 0 278 39v871h88v-936q-384 -98 -578 -30q-154 54 -195 194q-19 68 -19 147zM831 1448l-231 -301h-96l213 301h114z" />
    <glyph glyph-name="ucircumflex" unicode="&#xfb;" horiz-adv-x="1105" 
d="M152 344v625h88v-602q0 -151 72 -229q72 -79 266 -79q138 0 278 39v871h88v-936q-384 -98 -578 -30q-154 54 -195 194q-19 68 -19 147zM518 1448h49l264 -320h-92l-196 240l-197 -240h-92z" />
    <glyph glyph-name="udieresis" unicode="&#xfc;" horiz-adv-x="1105" 
d="M152 344v625h88v-602q0 -151 72 -229q72 -79 266 -79q138 0 278 39v871h88v-936q-384 -98 -578 -30q-154 54 -195 194q-19 68 -19 147zM649 1327h115v-117h-115v117zM362 1327h115v-117h-115v117z" />
    <glyph glyph-name="yacute" unicode="&#xfd;" horiz-adv-x="888" 
d="M279 -481h-95l207 475l-399 975h96l231 -570q70 -169 119 -311h4q38 101 127 309l248 572h98zM721 1448l-232 -301h-96l213 301h115z" />
    <glyph glyph-name="thorn" unicode="&#xfe;" horiz-adv-x="1130" 
d="M527 993q141 0 230 -34.5t186 -133t97 -331.5t-144 -378t-374 -145q-162 0 -272 60v-545h-88v2025h88v-585q136 67 277 67zM946 486q0 198 -106.5 310.5t-277.5 112.5t-312 -69v-715q125 -70 295 -70t285.5 116.5t115.5 314.5z" />
    <glyph glyph-name="ydieresis" unicode="&#xff;" horiz-adv-x="888" 
d="M279 -481h-95l207 475l-399 975h96l231 -570q70 -169 119 -311h4q38 101 127 309l248 572h98zM530 1327h115v-117h-115v117zM244 1327h114v-117h-114v117z" />
    <glyph glyph-name="Amacron" unicode="&#x100;" horiz-adv-x="1310" 
d="M659 1309h-4l-319 -748h637zM1212 0l-202 471h-711l-205 -471h-98l622 1423h84l613 -1423h-103zM420 1612v76h469v-76h-469z" />
    <glyph glyph-name="amacron" unicode="&#x101;" horiz-adv-x="1032" 
d="M261 119q69 -59 227 -59t309 49v362q-51 6 -118 15t-159 10q-170 0 -249 -62t-79 -159q0 -96 69 -156zM528 584q147 0 269 -27v49q0 246 -168 286q-55 13 -125 13q-151 0 -328 -84v90q171 82 355 82t267 -93t83 -279v-572q-175 -76 -394 -76q-383 0 -385 299
q0 140 104 226q103 86 322 86zM281 1247v76h469v-76h-469z" />
    <glyph glyph-name="Abreve" unicode="&#x102;" horiz-adv-x="1310" 
d="M659 1309h-4l-319 -748h637zM1212 0l-202 471h-711l-205 -471h-98l622 1423h84l613 -1423h-103zM654 1567q-130 0 -208 63t-88 193h76q21 -183 221 -184t222 184h75q-10 -129 -89 -193t-209 -63z" />
    <glyph glyph-name="abreve" unicode="&#x103;" horiz-adv-x="1032" 
d="M261 119q69 -59 227 -59t309 49v362q-51 6 -118 15t-159 10q-170 0 -249 -62t-79 -159q0 -96 69 -156zM528 584q147 0 269 -27v49q0 246 -168 286q-55 13 -125 13q-151 0 -328 -84v90q171 82 355 82t267 -93t83 -279v-572q-175 -76 -394 -76q-383 0 -385 299
q0 140 104 226q103 86 322 86zM515 1167q-130 0 -198 74t-77 203h75q9 -86 53 -146t145 -59q101 0 147 57t57 148h76q-10 -129 -79 -203t-199 -74z" />
    <glyph glyph-name="Aogonek" unicode="&#x104;" horiz-adv-x="1310" 
d="M659 1309h-4l-319 -748h637zM1206 -373q57 0 127 35v-70q-25 -10 -55 -21t-100 -11t-110 45t-40 116q0 141 197 279h-13l-202 471h-711l-205 -471h-98l622 1423h84l613 -1423q-116 -90 -165.5 -145.5t-49.5 -128.5q0 -43 24.5 -71t81.5 -28z" />
    <glyph glyph-name="aogonek" unicode="&#x105;" horiz-adv-x="1032" 
d="M498 59q149 0 299 50v362q-51 6 -118 15.5t-159 9.5q-170 0 -248.5 -62.5t-78.5 -154.5q0 -220 305 -220zM102 272q0 312 443 312q131 0 252 -27v49q0 247 -112 273t-181 26q-151 0 -328 -84v90q171 82 355 82t267 -93t83 -279v-572q-116 -90 -175 -161.5t-59 -161.5
q0 -43 24.5 -71t80.5 -28t129 35v-70q-25 -10 -55.5 -21t-100.5 -11t-110 45t-40 119t51.5 148.5t118.5 131.5q-137 -31 -258 -31q-385 0 -385 299z" />
    <glyph glyph-name="Cacute" unicode="&#x106;" horiz-adv-x="1343" 
d="M370 1171q-155 -173 -155 -463t172 -465t440 -175q161 0 263 34t176 74v-102q-186 -96 -469 -98q-282 -1 -481 199t-199 536t194 537q194 200 525 200q150 0 244 -26t153 -50v-106q-170 90 -410 90q-291 0 -453 -185zM985 1812l-201 -262h-96l186 262h111z" />
    <glyph glyph-name="cacute" unicode="&#x107;" horiz-adv-x="974" 
d="M94 478q0 228 136 371q136 144 372 144q167 0 279 -57v-100q-127 73 -299 72q-172 0 -283 -110t-111 -303t109 -316q109 -122 297 -122q110 0 192 25t119 45v-92q-122 -62 -273 -63q-387 -2 -502 299q-36 93 -36 207zM803 1448l-232 -301h-96l213 301h115z" />
    <glyph glyph-name="Ccircumflex" unicode="&#x108;" horiz-adv-x="1343" 
d="M370 1171q-155 -173 -155 -463t172 -465t440 -175q161 0 263 34t176 74v-102q-186 -96 -469 -98q-282 -1 -481 199t-199 536t194 537q194 200 525 200q150 0 244 -26t153 -50v-106q-170 90 -410 90q-291 0 -453 -185zM1159 1559h-106l-242 213l-240 -213h-108l323 286h50
z" />
    <glyph glyph-name="ccircumflex" unicode="&#x109;" horiz-adv-x="974" 
d="M94 478q0 228 136 371q136 144 372 144q167 0 279 -57v-100q-127 73 -299 72q-172 0 -283 -110t-111 -303t109 -316q109 -122 297 -122q110 0 192 25t119 45v-92q-122 -62 -273 -63q-387 -2 -502 299q-36 93 -36 207zM530 1448h50l264 -320h-92l-197 240l-197 -240h-92z
" />
    <glyph glyph-name="Cdotaccent" unicode="&#x10a;" horiz-adv-x="1343" 
d="M370 1171q-155 -173 -155 -463t172 -465t440 -175q161 0 263 34t176 74v-102q-186 -96 -469 -98q-282 -1 -481 199t-199 536t194 537q194 200 525 200q150 0 244 -26t153 -50v-106q-170 90 -410 90q-291 0 -453 -185zM754 1690h114v-117h-114v117z" />
    <glyph glyph-name="cdotaccent" unicode="&#x10b;" horiz-adv-x="974" 
d="M94 478q0 228 136 371q136 144 372 144q167 0 279 -57v-100q-127 73 -299 72q-172 0 -283 -110t-111 -303t109 -316q109 -122 297 -122q110 0 192 25t119 45v-92q-122 -62 -273 -63q-387 -2 -502 299q-36 93 -36 207zM541 1327h114v-117h-114v117z" />
    <glyph glyph-name="Ccaron" unicode="&#x10c;" horiz-adv-x="1343" 
d="M370 1171q-155 -173 -155 -463t172 -465t440 -175q161 0 263 34t176 74v-102q-186 -96 -469 -98q-282 -1 -481 199t-199 536t194 537q194 200 525 200q150 0 244 -26t153 -50v-106q-170 90 -410 90q-291 0 -453 -185zM467 1845h106l242 -213l242 213h106l-323 -286h-49z
" />
    <glyph glyph-name="ccaron" unicode="&#x10d;" horiz-adv-x="974" 
d="M94 478q0 228 136 371q136 144 372 144q167 0 279 -57v-100q-127 73 -299 72q-172 0 -283 -110t-111 -303t109 -316q109 -122 297 -122q110 0 192 25t119 45v-92q-122 -62 -273 -63q-387 -2 -502 299q-36 93 -36 207zM283 1448h92l196 -240l197 240h92l-264 -320h-49z
" />
    <glyph glyph-name="Dcaron" unicode="&#x10e;" horiz-adv-x="1468" 
d="M268 1333v-1243h326q298 0 478 166q181 166 181 460t-172 454t-512 163h-301zM596 0h-420v1423h393q393 0 588 -182t195 -510t-208 -530q-207 -201 -548 -201zM365 1845h106l242 -213l241 213h107l-324 -286h-49z" />
    <glyph glyph-name="dcaron" unicode="&#x10f;" horiz-adv-x="1134" 
d="M973 57q-167 -86 -390 -86t-357 132q-132 132 -132 364t135 379t385 147q139 0 271 -51v569h88v-1454zM188 471q0 -283 222 -380q77 -34 214 -34t261 54v737q-145 59 -275 59q-198 1 -310 -117t-112 -319zM1214 1511h91l-125 -485h-68z" />
    <glyph glyph-name="Dcroat" unicode="&#x110;" horiz-adv-x="1468" 
d="M268 1333v-581h457v-88h-457v-574h326q298 0 478 166q181 166 181 460t-172 454t-512 163h-301zM596 0h-420v664h-186v88h186v671h393q393 0 588 -182t195 -510t-208 -530q-207 -201 -548 -201z" />
    <glyph glyph-name="dcroat" unicode="&#x111;" horiz-adv-x="1134" 
d="M188 471q0 -283 149.5 -348.5t278.5 -65.5t269 60v731q-145 59 -275 59q-197 0 -309.5 -117.5t-112.5 -318.5zM620 993q133 0 265 -51v266h-387v82h387v221h88v-221h188v-82h-188v-1145q-179 -92 -396 -92q-218 0 -350.5 132.5t-132.5 365t135.5 378.5t390.5 146z" />
    <glyph glyph-name="Emacron" unicode="&#x112;" horiz-adv-x="1138" 
d="M1020 1335h-752v-567h684v-88h-684v-592h787v-88h-877v1423h842v-88zM383 1612v76h469v-76h-469z" />
    <glyph glyph-name="emacron" unicode="&#x113;" horiz-adv-x="1050" 
d="M561 907q-156 0 -253 -97t-113 -261h688q0 248 -177 331q-61 27 -145 27zM909 59q-148 -88 -352 -88q-203 0 -331 131t-128 368t129 380t337 143t310 -130q101 -130 101 -335q0 -31 -4 -65h-781q0 -178 102 -292t288 -114q106 0 194 32t135 65v-95zM315 1247v76h469v-76
h-469z" />
    <glyph glyph-name="Ebreve" unicode="&#x114;" horiz-adv-x="1138" 
d="M1020 1335h-752v-567h684v-88h-684v-592h787v-88h-877v1423h842v-88zM638 1567q-130 0 -208 63t-88 193h76q21 -183 221 -185q99 0 155 48t66 137h76q-10 -129 -89 -193t-209 -63z" />
    <glyph glyph-name="ebreve" unicode="&#x115;" horiz-adv-x="1050" 
d="M561 907q-156 0 -253 -97t-113 -261h688q0 248 -177 331q-61 27 -145 27zM909 59q-148 -88 -352 -88q-203 0 -331 131t-128 368t129 380t337 143t310 -130q101 -130 101 -335q0 -31 -4 -65h-781q0 -178 102 -292t288 -114q106 0 194 32t135 65v-95zM552 1167
q-130 0 -198 74t-78 203h76q10 -86 54 -146t144 -59q101 0 147 57t57 148h75q-11 -129 -79 -203t-198 -74z" />
    <glyph glyph-name="Edotaccent" unicode="&#x116;" horiz-adv-x="1138" 
d="M1020 1335h-752v-567h684v-88h-684v-592h787v-88h-877v1423h842v-88zM586 1690h114v-117h-114v117z" />
    <glyph glyph-name="edotaccent" unicode="&#x117;" horiz-adv-x="1050" 
d="M561 907q-156 0 -253 -97t-113 -261h688q0 248 -177 331q-61 27 -145 27zM909 59q-148 -88 -352 -88q-203 0 -331 131t-128 368t129 380t337 143t310 -130q101 -130 101 -335q0 -31 -4 -65h-781q0 -178 102 -292t288 -114q106 0 194 32t135 65v-95zM496 1327h114v-117
h-114v117z" />
    <glyph glyph-name="Eogonek" unicode="&#x118;" horiz-adv-x="1138" 
d="M945 -373q56 0 128 35v-70q-25 -10 -55 -21t-100 -11t-110 45t-40 116q0 141 197 279h-787v1423h842v-88h-752v-567h684v-88h-684v-592h787v-88q-116 -90 -165.5 -144.5t-49.5 -129.5q0 -43 24.5 -71t80.5 -28z" />
    <glyph glyph-name="eogonek" unicode="&#x119;" horiz-adv-x="1050" 
d="M561 907q-156 0 -253 -97t-113 -261h688q0 250 -119 304t-203 54zM782 -373q57 0 127 35v-70q-25 -10 -55 -21t-100 -11t-110 45t-40 117t43 144.5t109 129.5q-102 -25 -200 -25q-203 0 -330.5 131.5t-127.5 368.5q0 236 129.5 379t337.5 143q207 0 308.5 -130
t101.5 -335q0 -33 -4 -65h-781q0 -178 101.5 -292t288.5 -114q106 0 194 32t135 65v-95q-110 -86 -171.5 -165t-61.5 -168q0 -43 24.5 -71t81.5 -28z" />
    <glyph glyph-name="Ecaron" unicode="&#x11a;" horiz-adv-x="1138" 
d="M1020 1335h-752v-567h684v-88h-684v-592h787v-88h-877v1423h842v-88zM281 1845h106l242 -213l241 213h107l-324 -286h-49z" />
    <glyph glyph-name="ecaron" unicode="&#x11b;" horiz-adv-x="1050" 
d="M561 907q-156 0 -253 -97t-113 -261h688q0 248 -177 331q-61 27 -145 27zM909 59q-148 -88 -352 -88q-203 0 -331 131t-128 368t129 380t337 143t310 -130q101 -130 101 -335q0 -31 -4 -65h-781q0 -178 102 -292t288 -114q106 0 194 32t135 65v-95zM279 1448h92l196 -240
l197 240h92l-264 -320h-49z" />
    <glyph glyph-name="Gcircumflex" unicode="&#x11c;" horiz-adv-x="1452" 
d="M1311 117q-220 -142 -510 -142q-291 0 -488 200q-196 200 -196 532q0 333 202 537t539 204q232 0 418 -82v-109q-205 99 -426 99q-297 0 -466 -183t-169 -465q0 -283 168 -461q168 -179 440 -179q225 0 398 96v469h-410v88h500v-604zM1155 1559h-106l-242 213l-240 -213
h-108l323 286h49z" />
    <glyph glyph-name="gcircumflex" unicode="&#x11d;" horiz-adv-x="1128" 
d="M184 463q0 -191 106 -299t275 -107q170 0 314 93v712q-132 45 -259 45q-225 0 -339 -137q-97 -116 -97 -307zM222 105q-132 138 -132 366q0 227 140 374q140 148 386 148q128 -1 216 -25t135 -40v-934q0 -358 -264 -465q-93 -39 -220 -39t-209 24t-135 42v100
q170 -80 350 -80t285 96q104 96 105 318v67q-140 -86 -333 -86q-192 0 -324 134zM555 1448h49l264 -320h-92l-196 240l-197 -240h-92z" />
    <glyph glyph-name="Gbreve" unicode="&#x11e;" horiz-adv-x="1452" 
d="M1311 117q-220 -142 -510 -142q-291 0 -488 200q-196 200 -196 532q0 333 202 537t539 204q232 0 418 -82v-109q-205 99 -426 99q-297 0 -466 -183t-169 -465q0 -283 168 -461q168 -179 440 -179q225 0 398 96v469h-410v88h500v-604zM806 1567q-130 0 -208 63t-88 193h76
q21 -183 221 -185q99 0 155 48t66 137h76q-10 -129 -89 -193t-209 -63z" />
    <glyph glyph-name="gbreve" unicode="&#x11f;" horiz-adv-x="1128" 
d="M184 463q0 -191 106 -299t275 -107q170 0 314 93v712q-132 45 -259 45q-225 0 -339 -137q-97 -116 -97 -307zM222 105q-132 138 -132 366q0 227 140 374q140 148 386 148q128 -1 216 -25t135 -40v-934q0 -358 -264 -465q-93 -39 -220 -39t-209 24t-135 42v100
q170 -80 350 -80t285 96q104 96 105 318v67q-140 -86 -333 -86q-192 0 -324 134zM578 1167q-130 0 -197 74q-68 74 -78 203h76q10 -86 53 -146q42 -60 144 -59q102 0 148 57t56 148h76q-10 -129 -79 -203t-199 -74z" />
    <glyph glyph-name="Gdotaccent" unicode="&#x120;" horiz-adv-x="1452" 
d="M1311 117q-220 -142 -510 -142q-291 0 -488 200q-196 200 -196 532q0 333 202 537t539 204q232 0 418 -82v-109q-205 99 -426 99q-297 0 -466 -183t-169 -465q0 -283 168 -461q168 -179 440 -179q225 0 398 96v469h-410v88h500v-604zM762 1690h115v-117h-115v117z" />
    <glyph glyph-name="gdotaccent" unicode="&#x121;" horiz-adv-x="1128" 
d="M184 463q0 -191 106 -299t275 -107q170 0 314 93v712q-132 45 -259 45q-225 0 -339 -137q-97 -116 -97 -307zM222 105q-132 138 -132 366q0 227 140 374q140 148 386 148q128 -1 216 -25t135 -40v-934q0 -358 -264 -465q-93 -39 -220 -39t-209 24t-135 42v100
q170 -80 350 -80t285 96q104 96 105 318v67q-140 -86 -333 -86q-192 0 -324 134zM528 1327h115v-117h-115v117z" />
    <glyph glyph-name="Gcommaaccent" unicode="&#x122;" horiz-adv-x="1452" 
d="M1311 117q-220 -142 -510 -142q-291 0 -488 200q-196 200 -196 532q0 333 202 537t539 204q232 0 418 -82v-109q-205 99 -426 99q-297 0 -466 -183t-169 -465q0 -283 168 -461q168 -179 440 -179q225 0 398 96v469h-410v88h500v-604zM788 -131h101l-178 -342h-76z" />
    <glyph glyph-name="gcommaaccent" unicode="&#x123;" horiz-adv-x="1128" 
d="M184 463q0 -191 106 -299t275 -107q170 0 314 93v712q-132 45 -259 45q-225 0 -339 -137q-97 -116 -97 -307zM222 105q-132 138 -132 366q0 227 140 374q140 148 386 148q128 -1 216 -25t135 -40v-934q0 -358 -264 -465q-93 -39 -220 -39t-209 24t-135 42v100
q170 -80 350 -80t285 96q104 96 105 318v67q-140 -86 -333 -86q-192 0 -324 134zM606 1143h-104l172 342h82z" />
    <glyph glyph-name="Hcircumflex" unicode="&#x124;" horiz-adv-x="1445" 
d="M1180 696h-914v-696h-90v1423h90v-639h914v639h90v-1423h-90v696zM1077 1559h-106l-242 213l-240 -213h-108l324 286h49z" />
    <glyph glyph-name="hcircumflex" unicode="&#x125;" horiz-adv-x="1105" 
d="M317 928q148 65 304 65t239 -86q96 -96 94 -286v-621h-88v596q0 164 -64 239q-65 75 -223 75t-329 -109v-801h-88v1511h88v-620q27 18 67 37zM182 1855h49l265 -319h-93l-196 240l-197 -240h-92z" />
    <glyph glyph-name="Hbar" unicode="&#x126;" horiz-adv-x="1445" 
d="M1180 764v301h-914v-301h914zM-4 1153h180v270h90v-270h914v270h90v-270h180v-88h-180v-1065h-90v676h-914v-676h-90v1065h-180v88z" />
    <glyph glyph-name="hbar" unicode="&#x127;" horiz-adv-x="1105" 
d="M586 909q-150 0 -336 -108v-801h-88v1208h-203v82h203v221h88v-221h373v-82h-373v-317q98 66 201.5 84t152.5 18q350 0 350 -372v-621h-88v596q0 164 -65 238.5t-215 74.5z" />
    <glyph glyph-name="Itilde" unicode="&#x128;" horiz-adv-x="442" 
d="M176 1423h90v-1423h-90v1423zM6 1746q32 17 86 17q55 0 139 -64t131 -64q48 -1 74 38t33 84h72q-11 -80 -53 -138t-121 -58t-159 62q-81 62 -129 62q-48 1 -73 -38t-33 -80h-71q15 131 104 179z" />
    <glyph glyph-name="itilde" unicode="&#x129;" horiz-adv-x="409" 
d="M160 969h88v-969h-88v969zM358 1266q47 0 74 39t33 84h72q-11 -81 -53 -139t-123 -58t-162 68q-141 105 -197 18q-25 -39 -33 -80h-71q14 130 96 174t160 4q37 -18 73 -45q84 -65 131 -65z" />
    <glyph glyph-name="Imacron" unicode="&#x12a;" horiz-adv-x="442" 
d="M176 1423h90v-1423h-90v1423zM-12 1612v76h469v-76h-469z" />
    <glyph glyph-name="imacron" unicode="&#x12b;" horiz-adv-x="409" 
d="M160 969h88v-969h-88v969zM-16 1247v76h469v-76h-469z" />
    <glyph glyph-name="Ibreve" unicode="&#x12c;" horiz-adv-x="442" 
d="M176 1423h90v-1423h-90v1423zM220 1567q-130 0 -208 63t-88 193h76q21 -183 221 -185q99 0 155 48t66 137h76q-10 -129 -89 -193t-209 -63z" />
    <glyph glyph-name="ibreve" unicode="&#x12d;" horiz-adv-x="409" 
d="M160 969h88v-969h-88v969zM216 1167q-130 0 -198 74t-77 203h75q10 -86 54 -146t144 -59q101 0 147 57t57 148h76q-10 -129 -79 -203t-199 -74z" />
    <glyph glyph-name="Iogonek" unicode="&#x12e;" horiz-adv-x="442" 
d="M49 -268q0 113 139 268h-12v1423h90v-1423h-8q-76 -82 -106.5 -140.5t-30.5 -121.5q0 -111 100 -111q63 0 133 35v-70q-25 -10 -55.5 -21t-100.5 -11t-109.5 47t-39.5 125z" />
    <glyph glyph-name="iogonek" unicode="&#x12f;" horiz-adv-x="409" 
d="M147 1327h115v-117h-115v117zM31 -268q0 113 139 268h-10v969h88v-969h-8q-76 -82 -107 -140.5t-31 -121.5q0 -111 101 -111q60 0 133 35v-70q-25 -10 -55.5 -21t-100.5 -11t-109.5 47t-39.5 125z" />
    <glyph glyph-name="Idotaccent" unicode="&#x130;" horiz-adv-x="442" 
d="M176 1423h90v-1423h-90v1423zM164 1690h115v-117h-115v117z" />
    <glyph glyph-name="dotlessi" unicode="&#x131;" horiz-adv-x="409" 
d="M160 969h88v-969h-88v969z" />
    <glyph glyph-name="IJ" unicode="&#x132;" horiz-adv-x="1435" 
d="M176 1423h90v-1423h-90v1423zM1270 489q0 -365 -255 -476q-87 -38 -211 -38t-211 26t-128 48v96q134 -81 340 -84q301 0 357 261q17 78 18 170v931h90v-934z" />
    <glyph glyph-name="ij" unicode="&#x133;" 
d="M147 1327h115v-117h-115v117zM160 969h88v-969h-88v969zM557 1327h115v-117h-115v117zM569 -90v1059h88v-1082q0 -200 -93 -294q-93 -95 -236 -95q-52 0 -86 8v88q42 -12 88 -12q127 0 183 84t56 244z" />
    <glyph glyph-name="Jcircumflex" unicode="&#x134;" horiz-adv-x="993" 
d="M827 489q0 -366 -255 -476q-87 -38 -211 -38q-125 0 -211 26t-127 48v96q134 -81 339 -84q299 0 358 261q17 78 17 170v931h90v-934zM1124 1559h-106l-242 213l-239 -213h-109l324 286h49z" />
    <glyph glyph-name="jcircumflex" unicode="&#x135;" horiz-adv-x="409" 
d="M-80 -418q127 0 183 84t57 244v1059h88v-1082q0 -198 -93 -293q-93 -96 -237 -96q-52 0 -86 8v88q42 -12 88 -12zM193 1448h49l264 -320h-92l-197 240l-197 -240h-92z" />
    <glyph glyph-name="Kcommaaccent" unicode="&#x136;" horiz-adv-x="1175" 
d="M266 711v-711h-90v1423h90v-702h2l733 702h138l-746 -704l764 -719h-143l-746 711h-2zM592 -131h100l-178 -342h-76z" />
    <glyph glyph-name="kcommaaccent" unicode="&#x137;" horiz-adv-x="933" 
d="M250 506v-506h-88v1511h88v-995h4l502 453h137l-518 -459l514 -510h-129l-506 506h-4zM471 -131h100l-178 -342h-76z" />
    <glyph glyph-name="kgreenlandic" unicode="&#x138;" horiz-adv-x="933" 
d="M250 506v-506h-88v969h88v-453h4l502 453h137l-518 -459l514 -510h-129l-506 506h-4z" />
    <glyph glyph-name="Lacute" unicode="&#x139;" horiz-adv-x="1054" 
d="M176 1423h90v-1335h778v-88h-868v1423zM459 1874l-201 -262h-96l186 262h111z" />
    <glyph glyph-name="lacute" unicode="&#x13a;" horiz-adv-x="409" 
d="M162 1511h88v-1511h-88v1511zM483 1911l-231 -301h-96l213 301h114z" />
    <glyph glyph-name="Lcommaaccent" unicode="&#x13b;" horiz-adv-x="1054" 
d="M176 1423h90v-1335h778v-88h-868v1423zM598 -131h100l-178 -342h-76z" />
    <glyph glyph-name="lcommaaccent" unicode="&#x13c;" horiz-adv-x="409" 
d="M162 1511h88v-1511h-88v1511zM207 -131h100l-178 -342h-76z" />
    <glyph glyph-name="Lcaron" unicode="&#x13d;" horiz-adv-x="1054" 
d="M176 1423h90v-1335h778v-88h-868v1423zM731 1511h90l-125 -485h-67z" />
    <glyph glyph-name="lcaron" unicode="&#x13e;" horiz-adv-x="409" 
d="M162 1511h88v-1511h-88v1511zM485 1511h90l-124 -485h-68z" />
    <glyph glyph-name="Ldot" unicode="&#x13f;" horiz-adv-x="1054" 
d="M176 1423h90v-1335h778v-88h-868v1423zM688 834h115v-117h-115v117z" />
    <glyph glyph-name="ldot" unicode="&#x140;" horiz-adv-x="565" 
d="M162 1511h88v-1511h-88v1511zM428 834h115v-117h-115v117z" />
    <glyph glyph-name="Lslash" unicode="&#x141;" horiz-adv-x="1079" 
d="M279 88h778v-88h-869v588l-200 -137v98l200 137v737h91v-675l350 241v-98l-350 -242v-561z" />
    <glyph glyph-name="lslash" unicode="&#x142;" horiz-adv-x="434" 
d="M262 0h-88v680l-190 -133v98l190 133v733h88v-669l195 137v-98l-195 -138v-743z" />
    <glyph glyph-name="Nacute" unicode="&#x143;" horiz-adv-x="1515" 
d="M1341 0h-65l-1014 1251h-4q2 -94 2 -187v-1064h-86v1423h66l1009 -1257h8q-2 59 -2 133v1124h86v-1423zM999 1812l-200 -262h-97l187 262h110z" />
    <glyph glyph-name="nacute" unicode="&#x144;" horiz-adv-x="1105" 
d="M591 993q191 0 277 -83t86 -251v-659h-88v637q0 149 -63 210q-63 62 -211 62q-208 0 -342 -47v-862h-88v932q238 61 429 61zM803 1448l-232 -301h-96l213 301h115z" />
    <glyph glyph-name="Ncommaaccent" unicode="&#x145;" horiz-adv-x="1515" 
d="M1341 0h-65l-1014 1251h-4q2 -94 2 -187v-1064h-86v1423h66l1009 -1257h8q-2 59 -2 133v1124h86v-1423zM733 -131h101l-179 -342h-75z" />
    <glyph glyph-name="ncommaaccent" unicode="&#x146;" horiz-adv-x="1105" 
d="M591 993q191 0 277 -83t86 -251v-659h-88v637q0 149 -63 210q-63 62 -211 62q-208 0 -342 -47v-862h-88v932q238 61 429 61zM557 -131h100l-178 -342h-76z" />
    <glyph glyph-name="Ncaron" unicode="&#x147;" horiz-adv-x="1515" 
d="M1341 0h-65l-1014 1251h-4q2 -94 2 -187v-1064h-86v1423h66l1009 -1257h8q-2 59 -2 133v1124h86v-1423zM426 1845h106l242 -213l242 213h106l-323 -286h-49z" />
    <glyph glyph-name="ncaron" unicode="&#x148;" horiz-adv-x="1105" 
d="M591 993q191 0 277 -83t86 -251v-659h-88v637q0 149 -63 210q-63 62 -211 62q-208 0 -342 -47v-862h-88v932q238 61 429 61zM264 1448h92l197 -240l197 240h92l-264 -320h-50z" />
    <glyph glyph-name="napostrophe" unicode="&#x149;" horiz-adv-x="1132" 
d="M617 993q192 0 278 -83t86 -251v-659h-88v637q0 150 -64 211t-238 61t-315 -47v-862h-88v932q237 61 429 61zM186 1466h107l-256 -583h-78z" />
    <glyph glyph-name="Eng" unicode="&#x14a;" horiz-adv-x="1515" 
d="M639 -358q119 -86 285 -86t248.5 96.5t82.5 253.5v119l-993 1226h-4q2 -94 2 -117v-1134h-86v1423h66l1009 -1257h8q-2 59 -2 78v1179h86v-1525q0 -173 -98 -300.5t-315 -127.5q-149 0 -289 75v97z" />
    <glyph glyph-name="eng" unicode="&#x14b;" horiz-adv-x="1105" 
d="M162 895q201 98 399 98q197 0 295 -80.5t98 -281.5v-744q0 -200 -92.5 -294.5t-236.5 -94.5q-54 0 -86 8v88q42 -12 88 -12q127 0 183 84t56 244v686q0 174 -69 243.5t-236 69.5q-90 0 -176 -23.5t-135 -47.5v-838h-88v895z" />
    <glyph glyph-name="Omacron" unicode="&#x14c;" horiz-adv-x="1658" 
d="M117 714q0 155 52 290q105 273 372 388q131 56 295 56t298 -56q267 -112 362 -391q46 -135 46 -289q0 -313 -200 -524t-513 -213q-174 0 -307 59q-265 116 -359 390q-46 134 -46 290zM215 710q0 -142 44 -261q88 -238 316 -334q113 -47 251 -47q277 0 448 181
q170 181 170 468t-164 463t-445 176q-282 0 -451 -180q-169 -179 -169 -466zM594 1612v76h469v-76h-469z" />
    <glyph glyph-name="omacron" unicode="&#x14d;" horiz-adv-x="1175" 
d="M188 484q0 -188 111 -308q111 -119 293 -119t289 118q108 118 107 307q-1 188 -107 306q-106 119 -293 119t-294 -118q-106 -117 -106 -305zM94 482q0 220 138 365q138 146 357 146q218 0 356 -146t137 -364t-138 -365t-356 -147q-220 0 -357 146q-137 145 -137 365z
M352 1247v76h469v-76h-469z" />
    <glyph glyph-name="Obreve" unicode="&#x14e;" horiz-adv-x="1658" 
d="M117 714q0 155 52 290q105 273 372 388q131 56 295 56t298 -56q267 -112 362 -391q46 -135 46 -289q0 -313 -200 -524t-513 -213q-174 0 -307 59q-265 116 -359 390q-46 134 -46 290zM215 710q0 -142 44 -261q88 -238 316 -334q113 -47 251 -47q277 0 448 181
q170 181 170 468t-164 463t-445 176q-282 0 -451 -180q-169 -179 -169 -466zM828 1567q-130 0 -208 63t-88 193h76q21 -183 221 -184t222 184h75q-10 -129 -89 -193t-209 -63z" />
    <glyph glyph-name="obreve" unicode="&#x14f;" horiz-adv-x="1175" 
d="M188 484q0 -188 111 -308q111 -119 293 -119t289 118q108 118 107 307q-1 188 -107 306q-106 119 -293 119t-294 -118q-106 -117 -106 -305zM94 482q0 220 138 365q138 146 357 146q218 0 356 -146t137 -364t-138 -365t-356 -147q-220 0 -357 146q-137 145 -137 365z
M586 1167q-130 0 -197 74q-68 74 -78 203h76q10 -86 53 -146q42 -60 144 -59q102 0 148 57t56 148h76q-10 -129 -79 -203t-199 -74z" />
    <glyph glyph-name="Ohungarumlaut" unicode="&#x150;" horiz-adv-x="1658" 
d="M117 714q0 155 52 290q105 273 372 388q131 56 295 56t298 -56q267 -112 362 -391q46 -135 46 -289q0 -313 -200 -524t-513 -213q-174 0 -307 59q-265 116 -359 390q-46 134 -46 290zM215 710q0 -142 44 -261q88 -238 316 -334q113 -47 251 -47q277 0 448 181
q170 181 170 468t-164 463t-445 176q-282 0 -451 -180q-169 -179 -169 -466zM1200 1812l-201 -262h-96l187 262h110zM940 1812l-201 -262h-96l186 262h111z" />
    <glyph glyph-name="ohungarumlaut" unicode="&#x151;" horiz-adv-x="1175" 
d="M188 484q0 -188 111 -308q111 -119 293 -119t289 118q108 118 107 307q-1 188 -107 306q-106 119 -293 119t-294 -118q-106 -117 -106 -305zM94 482q0 220 138 365q138 146 357 146q218 0 356 -146t137 -364t-138 -365t-356 -147q-220 0 -357 146q-137 145 -137 365z
M930 1448l-232 -301h-96l213 301h115zM670 1448l-232 -301h-96l213 301h115z" />
    <glyph glyph-name="OE" unicode="&#x152;" horiz-adv-x="2185" 
d="M834 1356q-280 0 -443.5 -181t-163.5 -467t162 -463t440 -177q223 0 396 135v1022q-164 131 -391 131zM827 1448q235 0 398 -119v94h841v-88h-751v-567h684v-88h-684v-592h786v-88h-876v100q-186 -125 -408 -125q-319 0 -503.5 209t-184.5 528q0 320 194.5 528t503.5 208
z" />
    <glyph glyph-name="oe" unicode="&#x153;" horiz-adv-x="1933" 
d="M1444 907q-156 0 -253 -97t-114 -261h688q0 250 -118.5 304t-202.5 54zM298.5 174q110.5 -119 292.5 -119t289 118.5t107 306.5t-105 308.5t-293 120.5t-294.5 -118t-106.5 -308t110.5 -309zM588 -29q-220 0 -357 145.5t-137 366t139 365.5t355 145q164 0 277.5 -81
t164.5 -216q49 141 157.5 219t240.5 78t208 -36.5t149 -131t73 -297.5q0 -25 -5 -65h-780q0 -278 145.5 -342t247.5 -64t190.5 32t135.5 65v-95q-148 -88 -326 -88q-344 0 -442 285q-53 -129 -164.5 -207t-271.5 -78z" />
    <glyph glyph-name="Racute" unicode="&#x154;" horiz-adv-x="1247" 
d="M266 682h377q201 0 302 106q81 87 81 226q0 323 -414 319h-346v-651zM629 1423q499 0 495 -407q0 -162 -96 -273t-283 -141l447 -602h-115l-440 594h-371v-594h-90v1423h453zM825 1812l-200 -262h-97l187 262h110z" />
    <glyph glyph-name="racute" unicode="&#x155;" horiz-adv-x="700" 
d="M469 909q-117 0 -219 -43v-866h-88v928q164 65 346 65q78 0 170 -16v-84q-92 16 -209 16zM637 1448l-231 -301h-97l213 301h115z" />
    <glyph glyph-name="Rcommaaccent" unicode="&#x156;" horiz-adv-x="1247" 
d="M266 682h377q201 0 302 106q81 87 81 226q0 323 -414 319h-346v-651zM629 1423q499 0 495 -407q0 -162 -96 -273t-283 -141l447 -602h-115l-440 594h-371v-594h-90v1423h453zM608 -131h101l-179 -342h-75z" />
    <glyph glyph-name="rcommaaccent" unicode="&#x157;" horiz-adv-x="700" 
d="M469 909q-117 0 -219 -43v-866h-88v928q164 65 346 65q78 0 170 -16v-84q-92 16 -209 16zM221 -131h101l-179 -342h-75z" />
    <glyph glyph-name="Rcaron" unicode="&#x158;" horiz-adv-x="1247" 
d="M266 682h377q201 0 302 106q81 87 81 226q0 323 -414 319h-346v-651zM629 1423q499 0 495 -407q0 -162 -96 -273t-283 -141l447 -602h-115l-440 594h-371v-594h-90v1423h453zM272 1845h107l242 -213l241 213h107l-324 -286h-49z" />
    <glyph glyph-name="rcaron" unicode="&#x159;" horiz-adv-x="700" 
d="M469 909q-117 0 -219 -43v-866h-88v928q164 65 346 65q78 0 170 -16v-84q-92 16 -209 16zM139 1448h92l197 -240l197 240h92l-264 -320h-50z" />
    <glyph glyph-name="Sacute" unicode="&#x15a;" horiz-adv-x="1150" 
d="M848 152q100 84 100 214t-103 198q-85 55 -309 116t-311 135q-112 95 -111 257t137 269t336 107q199 0 386 -72v-106q-25 10 -60 25q-142 61 -324 61q-181 0 -279 -79t-99 -201q0 -122 91 -191q91 -68 292 -121q236 -68 310 -122q75 -54 108 -116q32 -62 32 -143
q-2 -273 -268 -372q-96 -36 -233 -36q-265 0 -432 107v111q191 -127 442 -125q195 0 295 84zM786 1812l-200 -262h-97l187 262h110z" />
    <glyph glyph-name="sacute" unicode="&#x15b;" horiz-adv-x="841" 
d="M446 907q-143 0 -203 -52q-61 -52 -61 -133t65 -121t206 -84t223 -101q82 -58 82 -174q0 -178 -193 -243q-68 -24 -162 -24q-194 0 -303 62v98q120 -73 336 -75q104 0 168 48q63 50 64 132q0 82 -70 126q-42 27 -160 61q-117 35 -172 59q-116 51 -153 128q-21 42 -21 100
q-1 118 96 199q96 80 261 79t256 -48v-96q-116 59 -259 59zM668 1448l-232 -301h-96l213 301h115z" />
    <glyph glyph-name="Scircumflex" unicode="&#x15c;" horiz-adv-x="1150" 
d="M848 152q100 84 100 214t-103 198q-85 55 -309 116t-311 135q-112 95 -111 257t137 269t336 107q199 0 386 -72v-106q-25 10 -60 25q-142 61 -324 61q-181 0 -279 -79t-99 -201q0 -122 91 -191q91 -68 292 -121q236 -68 310 -122q75 -54 108 -116q32 -62 32 -143
q-2 -273 -268 -372q-96 -36 -233 -36q-265 0 -432 107v111q191 -127 442 -125q195 0 295 84zM924 1559h-107l-242 213l-239 -213h-109l324 286h49z" />
    <glyph glyph-name="scircumflex" unicode="&#x15d;" horiz-adv-x="841" 
d="M446 907q-143 0 -203 -52q-61 -52 -61 -133t65 -121t206 -84t223 -101q82 -58 82 -174q0 -178 -193 -243q-68 -24 -162 -24q-194 0 -303 62v98q120 -73 336 -75q104 0 168 48q63 50 64 132q0 82 -70 126q-42 27 -160 61q-117 35 -172 59q-116 51 -153 128q-21 42 -21 100
q-1 118 96 199q96 80 261 79t256 -48v-96q-116 59 -259 59zM395 1448h49l265 -320h-93l-196 240l-197 -240h-92z" />
    <glyph glyph-name="Scedilla" unicode="&#x15e;" horiz-adv-x="1150" 
d="M553 68q195 0 295 84t100 214t-91 190t-255 105q-165 46 -326 110t-161 298q0 164 134.5 271.5t341.5 107.5t382 -72v-106q-25 10 -109.5 48t-270.5 38q-185 0 -283.5 -79t-98.5 -201t89 -189t310 -129q221 -63 295 -116.5t106.5 -116t32.5 -140.5q0 -164 -110.5 -279.5
t-339.5 -128.5l-35 -100q198 0 205 -158q0 -86 -64 -131t-156 -45t-182 29v70q102 -35 180 -35q77 0 111.5 31.5t34.5 77.5t-32.5 75t-104.5 31l-78 2l51 151q-264 7 -413 107v111q189 -125 442 -125z" />
    <glyph glyph-name="scedilla" unicode="&#x15f;" horiz-adv-x="841" 
d="M100 135q124 -76 336 -76q104 0 168 49.5t64 131.5t-60 119t-214 82.5t-228 103.5t-74 174t95 194t261 78t257 -47v-96q-115 59 -259 59q-143 0 -203.5 -52t-60.5 -133t65 -121.5t163 -70.5q191 -59 269.5 -115.5t78.5 -172.5q0 -164 -118 -212t-202 -53l-35 -100
q198 0 205 -158q0 -86 -64 -131t-156 -45t-181 29v70q102 -35 179 -35t111.5 31.5t34.5 77.5t-32.5 75t-104.5 31l-78 2l52 151q-176 9 -269 62v98z" />
    <glyph glyph-name="Scaron" unicode="&#x160;" horiz-adv-x="1150" 
d="M848 152q100 84 100 214t-103 198q-85 55 -309 116t-311 135q-112 95 -111 257t137 269t336 107q199 0 386 -72v-106q-25 10 -60 25q-142 61 -324 61q-181 0 -279 -79t-99 -201q0 -122 91 -191q91 -68 292 -121q236 -68 310 -122q75 -54 108 -116q32 -62 32 -143
q-2 -273 -268 -372q-96 -36 -233 -36q-265 0 -432 107v111q191 -127 442 -125q195 0 295 84zM246 1845h106l242 -213l242 213h106l-324 -286h-49z" />
    <glyph glyph-name="scaron" unicode="&#x161;" horiz-adv-x="841" 
d="M446 907q-143 0 -203 -52q-61 -52 -61 -133t65 -121t206 -84t223 -101q82 -58 82 -174q0 -178 -193 -243q-68 -24 -162 -24q-194 0 -303 62v98q120 -73 336 -75q104 0 168 48q63 50 64 132q0 82 -70 126q-42 27 -160 61q-117 35 -172 59q-116 51 -153 128q-21 42 -21 100
q-1 118 96 199q96 80 261 79t256 -48v-96q-116 59 -259 59zM131 1448h92l197 -240l196 240h93l-265 -320h-49z" />
    <glyph glyph-name="uni0162" unicode="&#x162;" horiz-adv-x="1097" 
d="M504 1335h-498v88h1086v-88h-498v-1335h-90v1335zM565 -131h101l-179 -342h-75z" />
    <glyph glyph-name="uni0163" unicode="&#x163;" horiz-adv-x="600" 
d="M467 -18q-277 0 -277 321v584h-184v82h184v291h89v-291h327v-82h-327v-572q0 -139 53 -195t134 -56t140 16v-78q-58 -20 -139 -20zM360 -131h101l-178 -342h-76z" />
    <glyph glyph-name="Tcaron" unicode="&#x164;" horiz-adv-x="1097" 
d="M504 1335h-498v88h1086v-88h-498v-1335h-90v1335zM201 1845h106l242 -213l242 213h106l-324 -286h-49z" />
    <glyph glyph-name="tcaron" unicode="&#x165;" horiz-adv-x="600" 
d="M467 -18q-277 0 -277 321v584h-184v82h184v291h89v-291h327v-82h-327v-572q0 -139 53 -195t134 -56t140 16v-78q-58 -20 -139 -20zM565 1647h90l-125 -486h-67z" />
    <glyph glyph-name="Tbar" unicode="&#x166;" horiz-adv-x="1097" 
d="M594 639v-639h-90v639h-404v88h404v608h-498v88h1086v-88h-498v-608h405v-88h-405z" />
    <glyph glyph-name="tbar" unicode="&#x167;" horiz-adv-x="600" 
d="M467 -18q-277 0 -277 321v154h-184v82h184v348h-184v82h184v291h89v-291h327v-82h-327v-348h327v-82h-327v-142q0 -139 53 -195.5t134 -56.5t140 17v-78q-58 -20 -139 -20z" />
    <glyph glyph-name="Utilde" unicode="&#x168;" horiz-adv-x="1404" 
d="M166 469v954h90v-940q0 -219 111 -317t347 -98t435 63v1292h90v-1357q-264 -91 -533 -91q-268 0 -404 119t-136 375zM486 1746q32 17 86 17t140 -64q85 -64 132 -64q47 -1 74 38t32 84h72q-10 -80 -52 -138t-121 -58t-160 62t-129 62q-48 1 -73 -38t-32 -80h-72
q14 131 103 179z" />
    <glyph glyph-name="utilde" unicode="&#x169;" horiz-adv-x="1105" 
d="M152 344v625h88v-602q0 -151 72 -229q72 -79 266 -79q138 0 278 39v871h88v-936q-384 -98 -578 -30q-154 54 -195 194q-19 68 -19 147zM694 1266q47 0 74 39t33 84h71q-10 -81 -52 -139t-123 -58t-162 68q-141 105 -197 18q-25 -39 -33 -80h-72q14 130 104 179
q32 17 85 18t139 -64t133 -65z" />
    <glyph glyph-name="Umacron" unicode="&#x16a;" horiz-adv-x="1404" 
d="M166 469v954h90v-940q0 -219 111 -317t347 -98t435 63v1292h90v-1357q-264 -91 -533 -91q-268 0 -404 119t-136 375zM467 1612v76h469v-76h-469z" />
    <glyph glyph-name="umacron" unicode="&#x16b;" horiz-adv-x="1105" 
d="M152 344v625h88v-602q0 -151 72 -229q72 -79 266 -79q138 0 278 39v871h88v-936q-384 -98 -578 -30q-154 54 -195 194q-19 68 -19 147zM317 1247v76h469v-76h-469z" />
    <glyph glyph-name="Ubreve" unicode="&#x16c;" horiz-adv-x="1404" 
d="M166 469v954h90v-940q0 -219 111 -317t347 -98t435 63v1292h90v-1357q-264 -91 -533 -91q-268 0 -404 119t-136 375zM701 1567q-129 0 -207 63t-88 193h75q21 -183 221 -184t222 184h75q-10 -129 -89 -193t-209 -63z" />
    <glyph glyph-name="ubreve" unicode="&#x16d;" horiz-adv-x="1105" 
d="M152 344v625h88v-602q0 -151 72 -229q72 -79 266 -79q138 0 278 39v871h88v-936q-384 -98 -578 -30q-154 54 -195 194q-19 68 -19 147zM544 1167q-130 0 -198 74t-78 203h76q10 -86 53 -146t145 -59q102 0 147 57q46 57 56 148h76q-10 -129 -79 -203q-68 -74 -198 -74z
" />
    <glyph glyph-name="Uring" unicode="&#x16e;" horiz-adv-x="1404" 
d="M166 469v954h90v-940q0 -219 111 -317t347 -98t435 63v1292h90v-1357q-264 -91 -533 -91q-268 0 -404 119t-136 375zM859 1898q63 -61 64 -153q1 -93 -63 -157t-156 -64q-90 0 -154 64t-65 157q0 92 66 155q66 62 156 62t152 -64zM555 1746q0 -62 44 -108t108 -45
q65 0 107 45t42 108q0 62 -43 104t-106 42t-107 -42t-45 -104z" />
    <glyph glyph-name="uring" unicode="&#x16f;" horiz-adv-x="1105" 
d="M152 344v625h88v-602q0 -151 72 -229q72 -79 266 -79q138 0 278 39v871h88v-936q-384 -98 -578 -30q-154 54 -195 194q-19 68 -19 147zM390 1497q64 62 155 63q90 1 153 -61t65 -156q1 -93 -63 -156t-154 -64q-92 -1 -156 63t-64 157q0 92 64 154zM547 1491
q-63 0 -107 -42q-44 -43 -45 -105q0 -62 44 -107t108 -45q65 0 107 45t42 107t-43 105q-43 42 -106 42z" />
    <glyph glyph-name="Uhungarumlaut" unicode="&#x170;" horiz-adv-x="1404" 
d="M166 469v954h90v-940q0 -219 111 -317t347 -98t435 63v1292h90v-1357q-264 -91 -533 -91q-268 0 -404 119t-136 375zM1104 1812l-201 -262h-96l186 262h111zM844 1812l-201 -262h-96l186 262h111z" />
    <glyph glyph-name="uhungarumlaut" unicode="&#x171;" horiz-adv-x="1105" 
d="M152 344v625h88v-602q0 -151 72 -229q72 -79 266 -79q138 0 278 39v871h88v-936q-384 -98 -578 -30q-154 54 -195 194q-19 68 -19 147zM926 1448l-232 -301h-96l213 301h115zM666 1448l-232 -301h-96l213 301h115z" />
    <glyph glyph-name="Uogonek" unicode="&#x172;" horiz-adv-x="1404" 
d="M1111 -373q56 0 128 35v-70q-25 -10 -55 -21t-100 -11t-110 45t-40 102q0 89 54.5 174.5t133.5 147.5q-188 -54 -389 -54q-295 0 -431 119t-136 375v954h90v-940q0 -219 110.5 -317t345.5 -98t437 63v1292h90v-1357q-104 -89 -168.5 -171.5t-64.5 -168.5q0 -43 24.5 -71
t80.5 -28z" />
    <glyph glyph-name="uogonek" unicode="&#x173;" horiz-adv-x="1105" 
d="M595 59q122 0 261 39v871h88v-936q-113 -90 -173 -158t-60 -149q0 -43 24.5 -71t80.5 -28t128 35v-70q-25 -10 -55.5 -21t-100.5 -11t-109.5 45t-39.5 117q0 138 188 282q-171 -29 -276 -29q-399 0 -399 369v625h88v-602q0 -153 72 -230.5t283 -77.5z" />
    <glyph glyph-name="Wcircumflex" unicode="&#x174;" horiz-adv-x="2011" 
d="M1108 948q-68 205 -104 336h-5q-23 -76 -55 -167t-63 -177l-342 -952h-68l-438 1435h94l322 -1069q35 -116 59 -204h4q16 47 32 95q15 48 42 120l383 1058h75l340 -1061q20 -61 40 -118t30 -105h4q41 137 70 217l350 1067h92l-475 -1435h-80zM1360 1559h-107l-241 213
l-240 -213h-108l323 286h49z" />
    <glyph glyph-name="wcircumflex" unicode="&#x175;" horiz-adv-x="1591" 
d="M883 639q-46 115 -72 215h-6q-14 -47 -36 -105t-42 -112l-250 -637h-86l-338 969h90l248 -723q23 -68 43 -137h6q21 76 64 182l270 678h76l268 -721q16 -41 28 -78t19 -61h6q9 39 23 75t25 64l274 721h92l-377 -969h-82zM784 1448h50l264 -320h-92l-197 240l-197 -240
h-92z" />
    <glyph glyph-name="Ycircumflex" unicode="&#x176;" horiz-adv-x="1085" 
d="M588 0h-90v551l-535 872h107l473 -778l481 778h106l-542 -872v-551zM891 1559h-107l-241 213l-240 -213h-108l323 286h49z" />
    <glyph glyph-name="ycircumflex" unicode="&#x177;" horiz-adv-x="888" 
d="M279 -481h-95l207 475l-399 975h96l231 -570q70 -169 119 -311h4q38 101 127 309l248 572h98zM420 1448h49l264 -320h-92l-197 240l-196 -240h-92z" />
    <glyph glyph-name="Ydieresis" unicode="&#x178;" horiz-adv-x="1085" 
d="M588 0h-90v551l-535 872h107l473 -778l481 778h106l-542 -872v-551zM629 1696h114v-117h-114v117zM342 1696h115v-117h-115v117z" />
    <glyph glyph-name="Zacute" unicode="&#x179;" horiz-adv-x="1259" 
d="M106 1423h1078v-69l-1012 -1266h1042v-88h-1161v76l1006 1259h-953v88zM829 1812l-200 -262h-97l187 262h110z" />
    <glyph glyph-name="zacute" unicode="&#x17a;" horiz-adv-x="897" 
d="M76 969h760v-74q-102 -131 -329 -395q-226 -264 -349 -422h702v-78h-811v74l676 817h-649v78zM694 1448l-231 -301h-96l213 301h114z" />
    <glyph glyph-name="Zdotaccent" unicode="&#x17b;" horiz-adv-x="1259" 
d="M106 1423h1078v-69l-1012 -1266h1042v-88h-1161v76l1006 1259h-953v88zM592 1690h115v-117h-115v117z" />
    <glyph glyph-name="zdotaccent" unicode="&#x17c;" horiz-adv-x="897" 
d="M76 969h760v-74q-102 -131 -329 -395q-226 -264 -349 -422h702v-78h-811v74l676 817h-649v78zM414 1327h114v-117h-114v117z" />
    <glyph glyph-name="Zcaron" unicode="&#x17d;" horiz-adv-x="1259" 
d="M106 1423h1078v-69l-1012 -1266h1042v-88h-1161v76l1006 1259h-953v88zM311 1845h107l241 -213l242 213h107l-324 -286h-49z" />
    <glyph glyph-name="zcaron" unicode="&#x17e;" horiz-adv-x="897" 
d="M76 969h760v-74q-102 -131 -329 -395q-226 -264 -349 -422h702v-78h-811v74l676 817h-649v78zM166 1448h92l197 -240l196 240h92l-264 -320h-49z" />
    <glyph glyph-name="florin" unicode="&#x192;" horiz-adv-x="1118" 
d="M131 -29q125 0 191.5 84t85.5 244l61 500h-162l8 82h162l25 198q20 168 117.5 268.5t261.5 100.5q85 0 145 -18l-10 -84q-80 20 -137 20q-256 0 -289 -293l-25 -192h320l-8 -82h-320l-63 -523q-22 -197 -124.5 -293t-242.5 -96q-63 0 -92 9l10 88q46 -13 86 -13z" />
    <glyph glyph-name="Scommaaccent" unicode="&#x218;" horiz-adv-x="1150" 
d="M848 152q100 84 100 214t-103 198q-85 55 -309 116t-311 135q-112 95 -111 257t137 269t336 107q199 0 386 -72v-106q-25 10 -60 25q-142 61 -324 61q-181 0 -279 -79t-99 -201q0 -122 91 -191q91 -68 292 -121q236 -68 310 -122q75 -54 108 -116q32 -62 32 -143
q-2 -273 -268 -372q-96 -36 -233 -36q-265 0 -432 107v111q191 -127 442 -125q195 0 295 84zM555 -131h100l-178 -342h-76z" />
    <glyph glyph-name="scommaaccent" unicode="&#x219;" horiz-adv-x="841" 
d="M446 907q-143 0 -203 -52q-61 -52 -61 -133t65 -121t206 -84t223 -101q82 -58 82 -174q0 -178 -193 -243q-68 -24 -162 -24q-194 0 -303 62v98q120 -73 336 -75q104 0 168 48q63 50 64 132q0 82 -70 126q-42 27 -160 61q-117 35 -172 59q-116 51 -153 128q-21 42 -21 100
q-1 118 96 199q96 80 261 79t256 -48v-96q-116 59 -259 59zM412 -131h100l-178 -342h-76z" />
    <glyph glyph-name="uni021A" unicode="&#x21a;" horiz-adv-x="1097" 
d="M504 1335h-498v88h1086v-88h-498v-1335h-90v1335zM565 -131h101l-179 -342h-75z" />
    <glyph glyph-name="uni021B" unicode="&#x21b;" horiz-adv-x="600" 
d="M467 -18q-277 0 -277 321v584h-184v82h184v291h89v-291h327v-82h-327v-572q0 -139 53 -195t134 -56t140 16v-78q-58 -20 -139 -20zM350 -131h101l-179 -342h-75z" />
    <glyph glyph-name="dotlessj" unicode="&#x237;" horiz-adv-x="409" 
d="M-80 -418q127 0 183.5 84t56.5 244v1059h88v-1082q0 -200 -93.5 -294.5t-236.5 -94.5q-54 0 -86 8v88q42 -12 88 -12z" />
    <glyph glyph-name="circumflex" unicode="&#x2c6;" horiz-adv-x="571" 
d="M260 1448h49l264 -320h-92l-196 240l-197 -240h-92z" />
    <glyph glyph-name="caron" unicode="&#x2c7;" horiz-adv-x="571" 
d="M-4 1448h92l197 -240l196 240h92l-264 -320h-49z" />
    <glyph glyph-name="uni02C9" unicode="&#x2c9;" horiz-adv-x="571" 
d="M51 1247v76h469v-76h-469z" />
    <glyph glyph-name="breve" unicode="&#x2d8;" horiz-adv-x="571" 
d="M287 1239q177 0 200 205h76q-10 -129 -78.5 -203t-198.5 -74t-198 74t-78 203h76q10 -86 53 -145.5t148 -59.5z" />
    <glyph glyph-name="dotaccent" unicode="&#x2d9;" horiz-adv-x="571" 
d="M233 1327h115v-117h-115v117z" />
    <glyph glyph-name="ring" unicode="&#x2da;" horiz-adv-x="571" 
d="M66 1341q0 45 17 86t47 70t70 46.5t85 17.5t85 -17.5t69.5 -46.5t47 -70t17.5 -86t-17.5 -84.5t-47 -69.5t-69.5 -47.5t-85 -17.5t-85 17.5t-70 47.5t-47 69.5t-17 84.5zM135 1344q0 -62 44 -107t108 -45t106.5 45t42.5 107t-43 104.5t-106 42.5t-107.5 -42.5
t-44.5 -104.5z" />
    <glyph glyph-name="ogonek" unicode="&#x2db;" horiz-adv-x="571" 
d="M309 -373q57 0 127 35v-70q-25 -10 -55.5 -21t-100.5 -11t-109.5 45t-39.5 116q0 141 197 279h90q-116 -90 -165.5 -145.5t-49.5 -128.5q0 -43 24.5 -71t81.5 -28z" />
    <glyph glyph-name="tilde" unicode="&#x2dc;" horiz-adv-x="571" 
d="M41.5 1361.5q60.5 33.5 114.5 33.5q54 -1 139 -65q86 -64 133 -64t73.5 38.5t33.5 84.5h71q-10 -80 -52 -138.5t-121 -58.5t-160 62q-82 62 -129 63q-48 0 -72.5 -39t-32.5 -80h-72q14 130 74.5 163.5z" />
    <glyph glyph-name="hungarumlaut" unicode="&#x2dd;" horiz-adv-x="571" 
d="M621 1448l-232 -301h-96l213 301h115zM360 1448l-231 -301h-96l213 301h114z" />
    <glyph glyph-name="uni0394" unicode="&#x394;" horiz-adv-x="1327" 
d="M662 1292h-7l-487 -1202h983zM33 0l588 1427h79l590 -1427h-1257z" />
    <glyph glyph-name="uni03A9" unicode="&#x3a9;" horiz-adv-x="1515" 
d="M1415 795q0 -239 -115 -400q-115 -162 -315 -231v-78h432v-86h-516v231q188 41 302 186t114 377t-157 397t-404 165t-409 -164q-161 -164 -161 -395q0 -232 110 -377t306 -189v-231h-516v86h432v76q-203 66 -316 233q-114 167 -114 391q0 137 49 258q100 246 346 352
q123 52 274 52q298 0 482 -195q86 -90 131 -210t45 -248z" />
    <glyph glyph-name="uni03BC" unicode="&#x3bc;" horiz-adv-x="1122" 
d="M956 68q-194 -97 -370 -97q-249 0 -334 135v-620h-88v1483h88v-549q0 -207 86 -289q43 -41 105 -58t173 -17t252 61v852h88v-901z" />
    <glyph glyph-name="pi" unicode="&#x3c0;" horiz-adv-x="1241" 
d="M1030 -12q-101 0 -144.5 59t-43.5 172v655h-459v-606q0 -150 -12 -268h-99q15 92 15 268v606q-118 0 -213 -22v94q127 23 301 23h778v-95h-213v-649q0 -145 117 -145q45 0 84 16v-84q-60 -24 -111 -24z" />
    <glyph glyph-name="Wgrave" unicode="&#x1e80;" horiz-adv-x="2011" 
d="M1108 948q-68 205 -104 336h-5q-23 -76 -55 -167t-63 -177l-342 -952h-68l-438 1435h94l322 -1069q35 -116 59 -204h4q16 47 32 95q15 48 42 120l383 1058h75l340 -1061q20 -61 40 -118t30 -105h4q41 137 70 217l350 1067h92l-475 -1435h-80zM838 1812l186 -262h-96
l-201 262h111z" />
    <glyph glyph-name="wgrave" unicode="&#x1e81;" horiz-adv-x="1591" 
d="M883 639q-46 115 -72 215h-6q-14 -47 -36 -105t-42 -112l-250 -637h-86l-338 969h90l248 -723q23 -68 43 -137h6q21 76 64 182l270 678h76l268 -721q16 -41 28 -78t19 -61h6q9 39 23 75t25 64l274 721h92l-377 -969h-82zM662 1448l212 -301h-96l-231 301h115z" />
    <glyph glyph-name="Wacute" unicode="&#x1e82;" horiz-adv-x="2011" 
d="M1108 948q-68 205 -104 336h-5q-23 -76 -55 -167t-63 -177l-342 -952h-68l-438 1435h94l322 -1069q35 -116 59 -204h4q16 47 32 95q15 48 42 120l383 1058h75l340 -1061q20 -61 40 -118t30 -105h4q41 137 70 217l350 1067h92l-475 -1435h-80zM1272 1812l-201 -262h-96
l186 262h111z" />
    <glyph glyph-name="wacute" unicode="&#x1e83;" horiz-adv-x="1591" 
d="M883 639q-46 115 -72 215h-6q-14 -47 -36 -105t-42 -112l-250 -637h-86l-338 969h90l248 -723q23 -68 43 -137h6q21 76 64 182l270 678h76l268 -721q16 -41 28 -78t19 -61h6q9 39 23 75t25 64l274 721h92l-377 -969h-82zM1098 1448l-232 -301h-96l213 301h115z" />
    <glyph glyph-name="Wdieresis" unicode="&#x1e84;" horiz-adv-x="2011" 
d="M1108 948q-68 205 -104 336h-5q-23 -76 -55 -167t-63 -177l-342 -952h-68l-438 1435h94l322 -1069q35 -116 59 -204h4q16 47 32 95q15 48 42 120l383 1058h75l340 -1061q20 -61 40 -118t30 -105h4q41 137 70 217l350 1067h92l-475 -1435h-80zM1092 1696h114v-117h-114
v117zM805 1696h115v-117h-115v117z" />
    <glyph glyph-name="wdieresis" unicode="&#x1e85;" horiz-adv-x="1591" 
d="M883 639q-46 115 -72 215h-6q-14 -47 -36 -105t-42 -112l-250 -637h-86l-338 969h90l248 -723q23 -68 43 -137h6q21 76 64 182l270 678h76l268 -721q16 -41 28 -78t19 -61h6q9 39 23 75t25 64l274 721h92l-377 -969h-82zM897 1327h115v-117h-115v117zM610 1327h115v-117
h-115v117z" />
    <glyph glyph-name="uni1E9E" unicode="&#x1e9e;" horiz-adv-x="1400" 
d="M508 176q171 -115 346 -115t264.5 96t89.5 236t-110.5 225.5t-370.5 135.5l-2 80l410 243q-18 114 -122 199.5t-282 85.5q-232 0 -354.5 -147t-122.5 -400v-815h-90v817q0 300 156 465.5t408 165.5t370.5 -119.5t142.5 -284.5l-399 -233q231 -47 347 -149.5t116 -273.5
t-114 -292t-325 -121t-358 97v104z" />
    <glyph glyph-name="Ygrave" unicode="&#x1ef2;" horiz-adv-x="1085" 
d="M588 0h-90v551l-535 872h107l473 -778l481 778h106l-542 -872v-551zM424 1812l186 -262h-96l-201 262h111z" />
    <glyph glyph-name="ygrave" unicode="&#x1ef3;" horiz-adv-x="888" 
d="M279 -481h-95l207 475l-399 975h96l231 -570q70 -169 119 -311h4q38 101 127 309l248 572h98zM297 1448l213 -301h-96l-232 301h115z" />
    <glyph glyph-name="endash" unicode="&#x2013;" horiz-adv-x="1124" 
d="M113 479v88h899v-88h-899z" />
    <glyph glyph-name="emdash" unicode="&#x2014;" horiz-adv-x="1595" 
d="M113 479v88h1370v-88h-1370z" />
    <glyph glyph-name="quoteleft" unicode="&#x2018;" horiz-adv-x="446" 
d="M162 883h-107l256 583h78z" />
    <glyph glyph-name="quoteright" unicode="&#x2019;" horiz-adv-x="446" 
d="M283 1466h106l-256 -583h-78z" />
    <glyph glyph-name="quotesinglbase" unicode="&#x201a;" horiz-adv-x="446" 
d="M283 250h106l-256 -584h-78z" />
    <glyph glyph-name="quotedblleft" unicode="&#x201c;" horiz-adv-x="772" 
d="M162 883h-107l256 583h78zM487 883h-106l256 583h78z" />
    <glyph glyph-name="quotedblright" unicode="&#x201d;" horiz-adv-x="772" 
d="M608 1466h107l-256 -583h-78zM283 1466h106l-256 -583h-78z" />
    <glyph glyph-name="quotedblbase" unicode="&#x201e;" horiz-adv-x="772" 
d="M608 250h107l-256 -584h-78zM283 250h106l-256 -584h-78z" />
    <glyph glyph-name="dagger" unicode="&#x2020;" horiz-adv-x="972" 
d="M537 950l-7 -1079h-94l-6 1079l-350 -8v100l350 -6l-4 387h115l-4 -387l356 6v-100z" />
    <glyph glyph-name="daggerdbl" unicode="&#x2021;" horiz-adv-x="972" 
d="M537 950l-7 -291l7 -315l356 8v-100l-356 6l4 -387h-115l4 387l-350 -6v100l350 -8l6 303l-6 303l-350 -8v100l350 -6l-4 387h115l-4 -387l356 6v-100z" />
    <glyph glyph-name="bullet" unicode="&#x2022;" horiz-adv-x="649" 
d="M174 733h299v-299h-299v299z" />
    <glyph glyph-name="ellipsis" unicode="&#x2026;" horiz-adv-x="1347" 
d="M610 137h138v-137h-138v137zM1055 137h137v-137h-137v137zM160 137h137v-137h-137v137z" />
    <glyph glyph-name="perthousand" unicode="&#x2030;" horiz-adv-x="2394" 
d="M965 350q0 -148 71.5 -225.5t185.5 -77.5t182.5 78t68.5 221t-67.5 226t-185.5 83t-186.5 -78.5t-68.5 -226.5zM980.5 627.5q93.5 99.5 241.5 99.5t238 -101t90 -273t-90.5 -275t-239.5 -103t-241 102.5t-92 276.5t93.5 273.5zM1372 1423l-1036 -1423h-96l1036 1423h96z
M139 1068q0 -148 71.5 -226t185.5 -78t182.5 78t68.5 221t-67.5 226t-185.5 83t-186.5 -78t-68.5 -226zM154.5 1343q93.5 101 242.5 101q148 0 238 -101.5t90 -273t-89.5 -274.5t-240.5 -103t-242.5 103t-91.5 275t93.5 273zM1747 350q0 -148 71.5 -225.5t185.5 -77.5
t182.5 78t68.5 221t-67.5 226t-185.5 83t-186.5 -78.5t-68.5 -226.5zM1762.5 627.5q93.5 99.5 241.5 99.5t238.5 -101t90.5 -273t-90.5 -275t-239.5 -103q-150 0 -242 102.5t-92 276.5t93.5 273.5z" />
    <glyph glyph-name="guilsinglleft" unicode="&#x2039;" horiz-adv-x="604" 
d="M389 846h107l-265 -367l265 -366h-107l-262 366z" />
    <glyph glyph-name="guilsinglright" unicode="&#x203a;" horiz-adv-x="604" 
d="M233 113h-106l264 366l-264 367h106l263 -367z" />
    <glyph glyph-name="fraction" unicode="&#x2044;" horiz-adv-x="280" 
d="M-330 0h-96l1036 1423h97z" />
    <glyph glyph-name="zero.superior" unicode="&#x2070;" 
d="M645 1145q0 401 -237 401q-111 0 -172.5 -100t-61.5 -306t66.5 -303.5t169.5 -97.5q173 0 204 160t31 246zM92 1146q0 236 85 357t239 121t232.5 -125t78.5 -342t-80.5 -355t-232.5 -138q-153 0 -237.5 123t-84.5 359z" />
    <glyph glyph-name="four.superior" unicode="&#x2074;" 
d="M504 1475h-4q-10 -16 -26.5 -41t-31.5 -48l-280 -397h342v486zM580 915v-239h-76v239h-434v64l450 637h60v-627h170v-74h-170z" />
    <glyph glyph-name="five.superior" unicode="&#x2075;" 
d="M129 799q100 -66 226 -66q125 0 186 63t61 157q0 95 -59.5 152.5t-176.5 57.5t-212 -28l30 467h465v-74h-395l-21 -307q87 14 158 14q142 0 218.5 -79.5t76.5 -200.5t-83.5 -208.5t-231.5 -87.5q-149 0 -242 56v84z" />
    <glyph glyph-name="six.superior" unicode="&#x2076;" 
d="M186 954q0 -96 60.5 -158.5t162.5 -62.5t161 63.5t59 160.5t-55.5 158t-157.5 61q-166 0 -198 -88.5t-32 -133.5zM432 1245q131 0 205 -81t74 -203t-81 -212t-219 -90t-221.5 83.5t-83.5 202.5t80 255l244 402h90l-246 -400v-2q65 45 158 45z" />
    <glyph glyph-name="seven.superior" unicode="&#x2077;" 
d="M104 1528v71h611v-61l-414 -862h-84l408 852h-521z" />
    <glyph glyph-name="eight.superior" unicode="&#x2078;" 
d="M102 922q0 178 181 235v4q-66 20 -110 81t-44 134q0 111 78 179.5t205 68.5t201.5 -65.5t74.5 -180.5q0 -72 -42 -132t-111 -83v-4q180 -53 180 -233q0 -123 -85 -192.5t-224.5 -69.5t-221.5 67.5t-82 190.5zM186 930q0 -92 58.5 -142.5t163 -50.5t164 51.5t59.5 141.5
t-61.5 139t-162 49t-161 -48t-60.5 -140zM213 1376q0 -82 54.5 -130t143.5 -48t141 48t52 130t-51 128t-141 46t-144.5 -46t-54.5 -128z" />
    <glyph glyph-name="nine.superior" unicode="&#x2079;" 
d="M631 1326q0 97 -60.5 157.5t-164.5 60.5t-161 -65.5t-57 -158.5t55 -155.5t161 -62.5t166.5 63.5t60.5 160.5zM397 1032q-76 0 -128 22.5t-88 60.5t-55.5 91.5t-19.5 146.5t84.5 179t220.5 86t219 -83t83 -202t-82 -256l-242 -401h-92l246 401h-2q-68 -45 -144 -45z" />
    <glyph glyph-name="zero.inferior" unicode="&#x2080;" 
d="M645 264q0 401 -237 402q-111 0 -172 -100q-62 -100 -62 -307q0 -206 67 -303t176 -97t169 111q59 110 59 294zM408 -217q-148 -1 -232 123t-84 360t85 356q85 122 239 122t232 -126q78 -125 79 -350q0 -331 -175 -445q-60 -40 -144 -40z" />
    <glyph glyph-name="one.inferior" unicode="&#x2081;" 
d="M180 568q0 20 2 42l291 146h43v-959h-80v856l-256 -127v42z" />
    <glyph glyph-name="two.inferior" unicode="&#x2082;" 
d="M397 680q-121 0 -243 -88v86q47 30 106 54t152 24q138 0 204 -74t66 -177t-51 -183t-178 -207l-236 -238h490v-80h-594v82l295 299q112 117 151 178q39 62 39 138q0 125 -108 170q-38 16 -93 16z" />
    <glyph glyph-name="three.inferior" unicode="&#x2083;" 
d="M668 59q0 -117 -84 -194q-84 -78 -236 -78t-248 47v88q35 -25 105 -42t135 -17q125 0 183 55q59 55 59 148q1 172 -271 172h-100v77h94q115 1 185 55t71 137q0 177 -213 177q-116 0 -225 -68v84q98 58 207 59q178 2 248 -66q69 -67 69 -164t-55 -159t-139 -85v-2
q215 -39 215 -224z" />
    <glyph glyph-name="four.inferior" unicode="&#x2084;" 
d="M504 594h-4q-22 -35 -58 -88l-280 -397h342v485zM580 35v-240h-76v240h-434v63l450 637h60v-626h170v-74h-170z" />
    <glyph glyph-name="five.inferior" unicode="&#x2085;" 
d="M602 73q0 95 -59 152t-173 57t-216 -28l30 467h465v-74h-395l-21 -307q87 14 158 14q70 0 128 -24q167 -68 167 -254q0 -125 -84 -212t-232 -86q-149 1 -241 56v84q101 -67 227 -66q125 1 186 63q60 63 60 158z" />
    <glyph glyph-name="six.inferior" unicode="&#x2086;" 
d="M246 -84q60 -62 164 -63q103 0 160 62t58 161q2 98 -54 158t-164 60t-166 -63q-58 -65 -58 -159t60 -156zM637 284q74 -81 74 -204t-81 -213t-219 -89q-137 1 -221 84t-84 202t80 255l244 402h90l-246 -399v-3q64 44 176 45q113 1 187 -80z" />
    <glyph glyph-name="seven.inferior" unicode="&#x2087;" 
d="M104 647v72h611v-62l-414 -862h-84l408 852h-521z" />
    <glyph glyph-name="eight.inferior" unicode="&#x2088;" 
d="M102 41q0 178 181 235v5q-66 20 -110 80t-44 135q0 112 78 180t205 68q128 0 202 -66t74 -180q0 -72 -42 -132t-111 -83v-4q180 -54 180 -234q0 -123 -85 -193t-224 -69q-139 0 -222 67q-82 68 -82 191zM186 49q0 -92 58 -142t164 -50q104 0 163 51t59 141t-60 139
q-62 50 -162 50t-161 -48t-61 -141zM412 670q-90 0 -144 -46t-55 -128q0 -82 54 -130q53 -48 143 -48t142 48t52 130t-51 128t-141 46z" />
    <glyph glyph-name="nine.inferior" unicode="&#x2089;" 
d="M631 445q-1 97 -61 157t-164 62q-104 0 -160 -65t-57 -159t55 -156t160 -62q106 0 166 62q60 64 61 161zM630 654q83 -83 83 -201t-82 -256l-242 -402h-92l246 402h-2q-68 -45 -144 -45q-136 0 -213 79q-76 79 -77 207q-1 127 85 214t220 86q135 -1 218 -84z" />
    <glyph glyph-name="Euro" unicode="&#x20ac;" horiz-adv-x="1118" 
d="M778 -29q-233 0 -363 136.5t-169 377.5h-197v82h187q-7 86 -7 163t4 104h-184v81h193q39 274 184 403.5t373 129.5q142 0 252 -43v-100q-112 57 -263 57q-205 0 -313 -120t-139 -327h557v-81h-565q-4 -27 -4 -34v-75q0 -84 8 -158h561v-82h-551q75 -428 434 -428
q160 0 275 56v-93q-132 -49 -273 -49z" />
    <glyph glyph-name="afii61289" unicode="&#x2113;" horiz-adv-x="1075" 
d="M700 1219q0 63 -26.5 105t-74.5 42t-82 -54.5t-34 -189.5v-422q217 262 217 519zM367 246v235l-127 -139l-60 66l187 198v510q0 174 65.5 258t166.5 84t153.5 -68.5t52.5 -156.5q0 -163 -73 -304t-249 -356v-323q0 -102 44 -141t100 -39q92 0 188 96l51 -66
q-117 -127 -262 -127q-113 0 -175 69t-62 204z" />
    <glyph glyph-name="trademark" unicode="&#x2122;" horiz-adv-x="1581" 
d="M1403 676v610h-2l-287 -586h-47l-285 586h-2v-610h-73v747h92l291 -602h2l297 602h88v-747h-74zM276 1350h-253v73h585v-73h-254v-674h-78v674z" />
    <glyph glyph-name="Omega" unicode="&#x2126;" horiz-adv-x="1515" 
d="M1415 795q0 -241 -115 -401.5t-315 -229.5v-78h432v-86h-516v231q187 41 301.5 185.5t114.5 376.5t-156.5 397.5t-404.5 165.5q-247 0 -408.5 -163.5t-161.5 -396.5t110.5 -377t305.5 -188v-231h-516v86h432v76q-202 65 -316 231.5t-114 392.5q0 137 49 258t136 210
t210 141.5t274 52.5t273.5 -52.5t208.5 -142.5t131 -210t45 -248z" />
    <glyph glyph-name="estimated" unicode="&#x212e;" horiz-adv-x="1699" 
d="M847 1331q-140 0 -269 -57t-220 -162v-379q0 -23 21 -22h944q18 0 18 22v377q-92 106 -223 163.5t-271 57.5zM849 1374q159 0 299 -53t246.5 -148.5t168 -225.5t61.5 -283h-1245q-20 0 -21 -23v-403q98 -104 228 -161t274 -57t278 68t228 180h117q-117 -141 -286 -216
t-335 -75t-306 51.5t-247.5 143.5t-171 220t-63.5 281t61.5 280.5t167 222t246.5 146.5t300 52z" />
    <glyph glyph-name="partialdiff" unicode="&#x2202;" horiz-adv-x="1095" 
d="M182 387q0 -143 70.5 -237.5t206.5 -94.5q170 0 278 160t142 418q-40 86 -125.5 147.5t-205.5 61.5q-70 0 -141 -38t-148 -134.5t-77 -282.5zM559 1454q212 0 322 -164t110 -411q0 -306 -94 -541t-215 -302t-217 -67q-177 0 -275 116t-98 294q0 232 139 391.5t336 159.5
q111 0 194 -49.5t130 -120.5q8 0 8 16v117q0 206 -90 340.5t-256 134.5q-114 0 -223 -78l-47 72q112 92 276 92z" />
    <glyph glyph-name="Delta" unicode="&#x2206;" horiz-adv-x="1327" 
d="M662 1292h-7l-487 -1202h983zM33 0l588 1427h79l590 -1427h-1257z" />
    <glyph glyph-name="product" unicode="&#x220f;" horiz-adv-x="1462" 
d="M1200 -461v1878h-938v-1878h-96v1964h1130v-1964h-96z" />
    <glyph glyph-name="summation" unicode="&#x2211;" horiz-adv-x="1261" 
d="M47 -461v55l701 934l-660 914v61h1079v-86h-946l639 -887l-680 -905h1028v-86h-1161z" />
    <glyph glyph-name="minus" unicode="&#x2212;" horiz-adv-x="1118" 
d="M1036 662v-82h-954v82h954z" />
    <glyph glyph-name="uni2215" unicode="&#x2215;" horiz-adv-x="677" 
d="M729 1536l-700 -1636h-86l700 1636h86z" />
    <glyph glyph-name="uni2219" unicode="&#x2219;" horiz-adv-x="473" 
d="M168 715h137v-137h-137v137z" />
    <glyph glyph-name="radical" unicode="&#x221a;" horiz-adv-x="1028" 
d="M555 -92q45 195 377 1595h96l-412 -1734h-98l-323 735l-115 -62q-12 23 -14 28l-23 50l201 103q78 -174 155.5 -357.5t155.5 -357.5z" />
    <glyph glyph-name="infinity" unicode="&#x221e;" horiz-adv-x="1558" 
d="M383 778q-95 0 -148 -65.5t-53 -161.5t57.5 -156.5t151.5 -60.5q162 0 336 219q-116 151 -205.5 188t-138.5 37zM1378 555q0 153 -77.5 188t-184 35t-282.5 -225q171 -219 340 -219q102 0 153 65.5t51 155.5zM778 483q-213 -235 -370 -235q-153 0 -236.5 85.5
t-83.5 219.5t81 221.5t205 87.5t215.5 -63.5t188.5 -177.5q98 109 186 175t211 66t208 -85t85 -215q0 -133 -81 -223.5t-218 -90.5q-202 0 -391 235z" />
    <glyph glyph-name="integral" unicode="&#x222b;" horiz-adv-x="1056" 
d="M682 1483q-25 0 -72 -39.5t-47 -206.5l2 -129v-999q0 -102 -4 -203t-43.5 -226.5t-218.5 -125.5q-37 0 -76 14t-49 45q8 47 47 74q21 -2 51.5 -25.5t58.5 -23.5t61.5 37.5t46.5 142.5t11 160l-1 22v991l-3 166q0 193 56.5 303.5t208.5 110.5q41 0 83 -15.5t50 -48.5
q-7 -52 -49 -75q-26 3 -47 19.5t-31 24t-35 7.5z" />
    <glyph glyph-name="approxequal" unicode="&#x2248;" horiz-adv-x="1118" 
d="M61 399q123 174 271 174q82 1 139 -21t111 -56t96 -52q43 -16 102 -16q124 0 209 139l68 -45q-41 -72 -111 -125t-152 -53q-126 0 -223 59t-136 73t-101 16q-117 0 -205 -142zM61 727q123 174 271 174q82 1 139 -21t111 -57t96 -51q43 -16 102 -16q124 0 209 139l68 -45
q-41 -72 -111 -125t-152 -53q-129 0 -220 56t-135 74q-44 17 -105 17q-117 0 -205 -141z" />
    <glyph glyph-name="notequal" unicode="&#x2260;" horiz-adv-x="1118" 
d="M82 375v82h344l166 327h-510v82h553l172 340h98l-172 -340h303v-82h-346l-166 -327h512v-82h-553l-172 -340h-98l172 340h-303z" />
    <glyph glyph-name="lessequal" unicode="&#x2264;" horiz-adv-x="1118" 
d="M82 0v82h954v-82h-954zM1036 1100v-86l-852 -371l852 -371v-86l-954 414v86z" />
    <glyph glyph-name="greaterequal" unicode="&#x2265;" horiz-adv-x="1118" 
d="M82 0v82h954v-82h-954zM1036 686v-86l-954 -414v86l852 371l-852 371v86z" />
    <glyph glyph-name="lozenge" unicode="&#x25ca;" horiz-adv-x="1177" 
d="M588 1333l-316 -614l316 -627l315 627zM635 -35h-94l-385 752l385 745h94l387 -743z" />
    <glyph glyph-name="uniF8FF" unicode="&#xf8ff;" horiz-adv-x="1036" 
 />
    <glyph glyph-name="commaaccent" horiz-adv-x="571" 
d="M315 -131h101l-178 -342h-76z" />
    <glyph glyph-name="zero.denominator" 
d="M645 469q0 401 -237 401q-111 0 -172 -100q-62 -100 -62 -306t67 -303t176 -97t168 110q60 111 60 295zM408 -12q-148 0 -232 124t-84 358q0 236 85 357t239 121t232 -125t79 -350q0 -331 -175 -445q-60 -40 -144 -40z" />
    <glyph glyph-name="one.denominator" 
d="M180 773q0 20 2 42l291 146h43v-959h-80v856l-256 -127v42z" />
    <glyph glyph-name="two.denominator" 
d="M412 961q138 0 204 -74t66 -178t-50 -181q-50 -78 -179 -209l-236 -237h490v-80h-594v82l295 299q112 117 151 178q39 62 39 137q0 125 -108 170q-38 16 -93 17q-121 0 -243 -88v86q47 29 106 53t152 25z" />
    <glyph glyph-name="three.denominator" 
d="M453 487q215 -39 215 -222q0 -184 -181 -251q-61 -22 -176 -22t-211 47v88q35 -25 105 -42t135 -17q125 0 183 55q59 55 59 148q1 171 -271 171h-100v78h94q115 0 185 54t71 138q0 178 -213 177q-111 0 -225 -68v84q98 58 207 59q178 2 248 -66q69 -67 69 -163t-54 -158
t-140 -88v-2z" />
    <glyph glyph-name="four.denominator" 
d="M504 799h-4q-22 -35 -58 -88l-280 -398h342v486zM580 240v-240h-76v240h-434v63l450 637h60v-627h170v-73h-170z" />
    <glyph glyph-name="five.denominator" 
d="M129 123q100 -66 226 -66q125 0 186 63t61 157q0 95 -59 153t-175 57q-116 0 -214 -28l30 467h465v-74h-395l-21 -307q87 14 158 14q70 1 128 -23q167 -68 167 -255q0 -125 -84 -212t-232 -86q-149 1 -241 56v84z" />
    <glyph glyph-name="six.denominator" 
d="M186 278q0 -94 60 -158q60 -62 163 -62q102 0 160 62q58 63 59 161q2 98 -54 158q-56 61 -163 61t-166 -64t-59 -158zM432 569q131 0 205 -81t74 -203t-81 -213q-81 -90 -219 -89q-137 1 -221 84t-84 201t80 256l244 402h90l-246 -400v-2q65 45 158 45z" />
    <glyph glyph-name="seven.denominator" 
d="M104 852v72h611v-62l-414 -862h-84l408 852h-521z" />
    <glyph glyph-name="eight.denominator" 
d="M102 246q0 178 181 235v4q-66 21 -110 81t-44 134q0 111 78 180q78 68 205 68q128 0 202 -66t74 -180q0 -72 -42 -132t-111 -83v-4q180 -53 180 -233q0 -123 -85 -193q-85 -69 -224 -69t-222 67q-82 68 -82 191zM186 254q0 -92 58 -142t164 -50q104 0 163 50
q59 52 59 142t-60 139q-62 49 -162 49t-161 -48t-61 -140zM412 874q-90 0 -144 -46t-55 -128q0 -82 54 -130q53 -48 143 -48t142 48t52 130t-51 128t-141 46z" />
    <glyph glyph-name="nine.denominator" 
d="M404 426q106 0 166 64t61 160q-1 98 -61 158t-165 60t-160 -64t-56 -159t55 -157q54 -62 160 -62zM630 859q83 -83 83 -200t-82 -258l-242 -401h-92l246 401h-2q-65 -43 -142 -44q-136 -2 -214 79q-77 80 -78 207t85 214t220 86q135 -1 218 -84z" />
    <glyph glyph-name="zero.numerator" 
d="M645 940q0 401 -237 401q-111 0 -172 -100q-62 -100 -62 -306t67 -303t176 -97t169 111q59 110 59 294zM408 459q-148 -1 -232 123t-84 360t85 356q85 121 239 121t232 -125t79 -350q0 -331 -175 -445q-60 -40 -144 -40z" />
    <glyph glyph-name="one.numerator" 
d="M180 1244q0 20 2 42l291 146h43v-959h-80v856l-256 -127v42z" />
    <glyph glyph-name="two.numerator" 
d="M412 1432q138 0 204 -74t66 -178t-51 -183t-178 -206l-236 -238h490v-80h-594v82l295 299q112 117 151 178q39 62 39 137q0 125 -108 170q-38 16 -93 17q-121 0 -243 -88v86q47 30 106 54t152 24z" />
    <glyph glyph-name="three.numerator" 
d="M453 958q215 -39 215 -222q0 -184 -181 -251q-61 -23 -176 -23t-211 48v88q35 -25 105 -42t135 -17q125 0 183 55q59 55 59 148q1 171 -271 171h-100v78h94q115 1 185 55t71 137q0 177 -213 177q-111 0 -225 -68v84q98 58 207 59q178 2 248 -66q69 -67 69 -163t-54 -159
t-140 -86v-3z" />
    <glyph glyph-name="four.numerator" 
d="M504 1270h-4q-22 -35 -58 -88l-280 -398h342v486zM580 711v-240h-76v240h-434v63l450 637h60v-627h170v-73h-170z" />
    <glyph glyph-name="five.numerator" 
d="M129 594q100 -66 226 -66q125 0 186 63t61 157t-59 152t-175 58t-214 -28l30 467h465v-74h-395l-21 -307q87 14 158 14q70 0 128 -24q167 -68 167 -254q0 -125 -84 -212t-232 -86q-149 1 -241 56v84z" />
    <glyph glyph-name="six.numerator" 
d="M186 748q0 -94 60 -156t163 -64q102 0 160 63t59 161q2 98 -54 158t-163 60t-166 -63q-59 -65 -59 -159zM432 1040q131 0 205 -81t74 -203t-81 -213q-81 -90 -219 -89q-137 1 -221 84t-84 201t80 256l244 402h90l-246 -400v-2q65 45 158 45z" />
    <glyph glyph-name="seven.numerator" 
d="M104 1323v72h611v-62l-414 -862h-84l408 852h-521z" />
    <glyph glyph-name="eight.numerator" 
d="M102 717q0 178 181 235v4q-66 20 -110 80t-44 135q0 111 78 180t205 69q128 0 202 -66t74 -180q0 -72 -42 -132t-111 -84v-4q180 -53 180 -233q0 -123 -85 -193t-224 -70t-222 68q-82 68 -82 191zM186 725q0 -92 58 -142q58 -51 164 -51q104 0 163 52t59 141
q0 90 -60 139q-62 49 -162 49t-161 -48t-61 -140zM213 1171q0 -82 54 -130q53 -48 143 -48t142 48t52 130t-51 128q-51 47 -141 47t-144 -46t-55 -129z" />
    <glyph glyph-name="nine.numerator" 
d="M404 897q106 -1 166 63t61 161q-1 97 -61 157t-165 61q-105 0 -160 -64t-56 -159q-1 -94 55 -156q54 -62 160 -63zM630 1330q83 -83 83 -200t-82 -258l-242 -401h-92l246 401h-2q-65 -43 -142 -44q-136 -2 -214 79q-77 80 -78 207t85 214t220 86q135 -1 218 -84z" />
    <glyph glyph-name="zero.alt" horiz-adv-x="1210" 
d="M995 715q0 645 -391 645q-186 0 -286.5 -161t-100.5 -488t105.5 -487.5t292.5 -160.5q186 0 283 181.5t97 470.5zM123 718q0 364 129.5 547t363.5 183t352.5 -191.5t118.5 -522.5t-116.5 -545t-355.5 -214q-238 0 -365 189.5t-127 553.5z" />
    <glyph glyph-name="one.alt" horiz-adv-x="880" 
d="M545 1458v-1458h-88v1343l-371 -190v96l406 209h53z" />
    <glyph glyph-name="four.alt" horiz-adv-x="1185" 
d="M782 1272h-6q-24 -49 -88 -137l-510 -705h604v842zM866 346v-346h-84v346h-712v78l727 999h69v-993h228v-84h-228z" />
    <glyph glyph-name="seven.alt" horiz-adv-x="1040" 
d="M57 1341v82h924v-75l-623 -1348h-94l623 1341h-830z" />
    <glyph glyph-name="acute.cap" horiz-adv-x="571" 
d="M492 1812l-201 -262h-96l186 262h111z" />
    <glyph glyph-name="breve.cap" horiz-adv-x="571" 
d="M287 1638q98 0 154.5 47.5t66.5 137.5h76q-10 -129 -89 -192.5t-209 -63.5t-208 63.5t-88 192.5h76q22 -185 221 -185z" />
    <glyph glyph-name="caron.alt" horiz-adv-x="464" 
d="M250 1511h90l-125 -485h-68z" />
    <glyph glyph-name="caron.cap" horiz-adv-x="571" 
d="M-63 1845h106l242 -213l241 213h107l-324 -286h-49z" />
    <glyph glyph-name="circumflex.cap" horiz-adv-x="571" 
d="M633 1559h-107l-241 213l-240 -213h-108l323 286h49z" />
    <glyph glyph-name="commaaccent.alt" horiz-adv-x="571" 
d="M289 1143h-105l172 342h82z" />
    <glyph glyph-name="dieresis.cap" horiz-adv-x="571" 
d="M377 1696h115v-117h-115v117zM90 1696h115v-117h-115v117z" />
    <glyph glyph-name="dotaccent.cap" horiz-adv-x="571" 
d="M233 1690h115v-117h-115v117z" />
    <glyph glyph-name="grave.cap" horiz-adv-x="514" 
d="M129 1812l186 -262h-96l-201 262h111z" />
    <glyph glyph-name="hungarumlaut.cap" horiz-adv-x="571" 
d="M623 1812l-201 -262h-96l186 262h111zM362 1812l-200 -262h-96l186 262h110z" />
    <glyph glyph-name="macron.cap" horiz-adv-x="571" 
d="M51 1612v76h469v-76h-469z" />
    <glyph glyph-name="ring.cap" horiz-adv-x="571" 
d="M66 1743q0 45 17 86t47 69.5t70 46t85 17.5t85 -17.5t69.5 -46t47 -69.5t17.5 -86t-17.5 -85t-47 -69.5t-69.5 -47t-85 -17.5t-85 17.5t-70 47t-47 69.5t-17 85zM135 1746q0 -62 44 -107.5t108 -45.5t106.5 45t42.5 108t-43 104.5t-106 41.5t-107.5 -42t-44.5 -104z" />
    <glyph glyph-name="tilde.cap" horiz-adv-x="571" 
d="M41.5 1730.5q60.5 32.5 113.5 32.5t115 -45t96.5 -64.5t71.5 -19.5t63.5 39t33.5 84h71q-10 -80 -52 -138t-121 -58q-79 1 -161 63t-129 62t-71.5 -39t-32.5 -80h-72q14 131 74.5 163.5z" />
    <glyph glyph-name="f_f.liga" horiz-adv-x="1183" 
d="M1151 1446q-252 0 -252 -293v-184h320v-82h-320v-887h-88v887h-504v-887h-88v887h-162v82h162v190q0 168 90 268.5t258 100.5q76 0 115 -15v-83q-56 16 -121 16q-254 0 -254 -293v-184h504v190q0 168 90 268.5t254 100.5q79 0 139 -19v-84q-84 21 -143 21z" />
    <glyph glyph-name="fi.liga" horiz-adv-x="1001" 
d="M561 1446q-252 0 -254 -293v-184h533v-969h-88v887h-445v-887h-88v887h-162v82h162v190q0 168 90 268t254 101q79 0 139 -19v-84q-84 21 -141 21z" />
    <glyph glyph-name="fl.liga" horiz-adv-x="1001" 
d="M588 1448q-281 0 -281 -295v-184h279v-82h-279v-887h-88v887h-162v82h162v190q0 168 96 268t277 101q124 0 250 -43v-1485h-88v1430q-83 18 -166 18z" />
    <glyph glyph-name="f_f_i.liga" horiz-adv-x="1593" 
d="M1151 1446q-252 0 -252 -293v-184h533v-969h-89v887h-444v-887h-88v887h-504v-887h-88v887h-162v82h162v190q0 168 90 268.5t258 100.5q76 0 115 -15v-83q-56 16 -121 16q-254 0 -254 -293v-184h504v190q0 168 90 268.5t254 100.5q79 0 139 -19v-84q-84 21 -143 21z" />
    <glyph glyph-name="f_f_l.liga" horiz-adv-x="1593" 
d="M1180 1448q-281 0 -281 -295v-184h279v-82h-279v-887h-88v887h-504v-887h-88v887h-162v82h162v190q0 168 90 268.5t258 100.5q76 0 115 -15v-83q-56 16 -121 16q-254 0 -254 -293v-184h504v190q0 168 96.5 268.5t276.5 100.5q124 0 250 -43v-1485h-88v1430
q-83 18 -166 18z" />
    <glyph glyph-name="f_i.liga" horiz-adv-x="1001" 
d="M561 1446q-254 0 -254 -293v-184h533v-969h-88v887h-445v-887h-88v887h-162v82h162v190q0 168 90 268.5t254 100.5q79 0 139 -19v-84q-84 21 -141 21z" />
    <glyph glyph-name="f_l.liga" horiz-adv-x="1001" 
d="M588 1448q-281 0 -281 -295v-184h279v-82h-279v-887h-88v887h-162v82h162v190q0 168 96.5 268.5t276.5 100.5q124 0 250 -43v-1485h-88v1430q-83 18 -166 18z" />
    <glyph glyph-name="two.alt" horiz-adv-x="1118" 
d="M139 1303q191 145 401 145t313 -103.5t103 -262.5t-77.5 -283.5t-264.5 -311.5l-389 -395h768v-92h-880v98l448 463q167 171 215.5 247.5t67 134t18.5 117.5q0 128 -78 215t-241 87q-200 0 -404 -162v103z" />
    <glyph glyph-name="three.alt" horiz-adv-x="1118" 
d="M954 389q0 -176 -123 -295t-347 -119q-223 0 -371 70v109q88 -61 200.5 -77t186.5 -16t217 49t143 274t-166 255.5t-260 30.5h-153v92h143q181 0 293 89t112 221t-81.5 211t-262.5 79q-127 0 -218 -42t-120 -60v100q57 33 151.5 60.5t203.5 27.5q213 0 317.5 -100.5
t104.5 -247.5t-90.5 -244t-208.5 -127v-4q329 -63 329 -336z" />
    <glyph glyph-name="five.alt" horiz-adv-x="1118" 
d="M519 852q236 0 350 -124t114 -310t-126.5 -314.5t-371.5 -128.5q-125 0 -208.5 30t-135.5 58v103q49 -35 141 -71t204 -36q205 0 304 103.5t99 256.5t-95.5 251t-276.5 98t-337 -49l47 704h699v-82h-623l-35 -518q125 29 251 29z" />
    <glyph glyph-name="six.alt" horiz-adv-x="1118" 
d="M302.5 160.5q101.5 -101.5 265.5 -101.5t264 106t100 264q0 159 -91 259t-266 100t-274.5 -104t-99.5 -263t101.5 -260.5zM592 872q204 0 319 -123.5t115 -312.5t-123.5 -325t-333.5 -136q-211 0 -335.5 126.5t-124.5 306.5t124 387l379 628h103l-385 -626l2 -2
q99 77 260 77z" />
    <glyph glyph-name="eight.alt" horiz-adv-x="1118" 
d="M1022 375q0 -186 -129 -293t-341 -107t-336 100.5t-124 291.5q0 147 76 236t205 130v6q-104 28 -170 125t-66 194q0 181 118 285.5t310 104.5q191 0 302.5 -99.5t111.5 -275.5q0 -108 -65 -201.5t-171 -130.5v-6q279 -81 279 -360zM186 378q0 -152 98.5 -235.5
t272.5 -83.5t272.5 83t98.5 231t-102 231.5t-270 83.5q-167 0 -268.5 -79t-101.5 -231zM885 1073q0 135 -87 213t-237 78t-240 -78t-90 -211t92.5 -215t238.5 -82q147 0 235 80t88 215z" />
    <glyph glyph-name="nine.alt" horiz-adv-x="1118" 
d="M817 1265q-101 99 -271 99t-265 -107.5t-95 -264.5t95 -257t264 -100t271 105t102 265q0 161 -101 260zM526 551q-201 0 -317.5 125t-116.5 317q0 191 126.5 323t333.5 132t332.5 -124.5t125.5 -306.5t-125 -388l-379 -629h-107l387 629l-2 2q-103 -80 -258 -80z" />
    <glyph glyph-name="idotaccent" horiz-adv-x="409" 
d="M147 1327h115v-117h-115v117zM160 969h88v-969h-88v969z" />
    </font>
</defs>
</svg>
